<?xml version="1.0" encoding="utf-8"?>
<!-- Generator: Adobe Illustrator 21.0.0, SVG Export Plug-In . SVG Version: 6.00 Build 0)  -->
<svg version="1.1" id="Layer_1" xmlns="http://www.w3.org/2000/svg" xmlns:xlink="http://www.w3.org/1999/xlink" x="0px" y="0px"
	 viewBox="0 0 109.9 59.1" style="enable-background:new 0 0 109.9 59.1;" xml:space="preserve">
<style type="text/css">
	.st0{fill:#124C6C;}
	.st1{fill:#E5E5E4;}
	.st2{fill:#211E1F;}
	.st3{fill:#2688AF;}
	.st4{fill:#145F87;}
	.st5{fill:#BBBCBE;}
	.st6{fill:#FFFFFF;}
	.st7{fill:#434243;}
	.st8{fill:#CD2030;}
</style>
<g id="Group-22_1_">
	<path id="Fill-16_2_" class="st0" d="M46.3,46.7c0,0.4-0.1,0.8-0.2,1.1c-0.2,0.1-0.4,0.2-0.5,0.4c0.1-0.2,0.1-0.5-0.1-0.6
		c0,0,0,0,0,0c-0.2-0.1-0.4-0.2-0.6-0.2c0.1-0.1,0.1-0.2,0.1-0.4c-0.1-0.3-0.1-0.6-0.1-0.9c0.1-0.5,0.1-1,0.1-1.5l1-0.1
		C46.2,45.2,46.3,45.9,46.3,46.7 M49.4,18c0-0.1,0.2-1.2,0.2-1.2s0.2-0.1,0.2,0.2s0.5,1.8,0.5,2.1c0.1,0.3,0.2,0.7,0.1,1
		c-0.2,0.2-0.3,0.5-0.3,0.7h0.1l0,0c0,0.1-0.1,0.1-0.1,0.2l0,0c-0.1-0.4-1-1.2-0.8-1.3c0.4-0.4,0.3-1-0.1-1.4
		c-0.1,0-0.1-0.1-0.2-0.1C49.3,18.2,49.4,18.1,49.4,18 M53.2,32c0-0.5-1.4-4-1.5-4.5S51,24.4,50.9,24c0-0.1-0.1-0.2-0.1-0.2l0.3-0.5
		c0.4-0.7,0.7-1.4,1-2.1c0.2,0,0.3-0.1,0.5-0.2c0-0.1,0-0.3,0-0.4c0,0,0.1-0.8,0.2-1.1c0-0.6-0.1-1.2-0.2-1.8c-0.2-1-0.4-2-0.8-3
		c-0.1-0.4-0.3-0.9-0.5-1.3c-0.2-0.1-0.3-0.2-0.4-0.4c-0.1-0.4-0.3-0.7-0.6-1c-0.3-0.3-0.7-0.5-1.1-0.6c-0.3-0.1-0.6-0.3-0.9-0.4
		c-0.4-0.3-0.9-0.4-1.4-0.4c0,0,0-0.1,0-0.1c0-0.3,0.1-0.7,0.2-1c0.1-0.3,0.2-0.6,0.2-0.9c0-0.2,0.2-0.4,0.2-0.7
		c0-0.1-0.1-0.2-0.1-0.3c0,0,0-0.1,0-0.1c0.1-0.2,0.1-0.4,0.1-0.6c0-0.5-0.1-1.1-0.4-1.6c-0.3-0.6-0.8-1-1.4-1.1
		c-0.4-0.1-0.7-0.1-1.1-0.1c-0.6,0.1-1.2,0.4-1.6,0.8c-0.4,0.4-0.6,0.9-0.6,1.4c0,0.4,0,0.9,0.1,1.3c0.1,0.2,0.3,0.5,0.5,0.7
		c-0.2,0.2-0.1,0.3,0,0.5c0.1,0.2,0.2,0.3,0.2,0.5c0.3,0.2,0.6,0.5,0.7,0.8v0.5c-1.4,0.3-2.8,1-3.9,2C40,12.8,39.9,13,40,13.2
		c0,0.2-0.1,0.3-0.2,0.4c-0.1,0.6-0.1,1.2,0,1.8c-0.1,0.4-0.1,0.9-0.1,1.3c0,0.4,0.3,2.2,0.3,2.4s0.2,1,0.2,1.1s0.2,0.9,0.2,1.1
		c0.1,0.3,0.2,0.6,0.4,0.8c0,0.3,0.1,0.6,0.2,0.9c0.1,0.1,0.3,0.1,0.4,0c0,0,0,0,0,0c0,0,0,0.1,0.1,0.1c0,0.4-0.1,1-0.1,1.4
		c0,0.2,0,0.4,0.1,0.5c-0.2,1.5-0.2,3-0.1,4.6c0.1,1.5,0.3,2.9,0.5,4.4c-0.1,2.3,0.2,9.1,0.2,9.1v0.4c0.3,0.2,0.6,0.4,1,0.4
		c0,0.6,0.2,2.3,0.2,2.4c0,0.4,0,0.8-0.1,1.2c0,0.2,0,0.4,0,0.6c-0.1,0.2-0.3,0.3-0.3,0.5c-0.1,0.4-0.2,0.9-0.2,1.4
		c0,0-0.1,0.6,1.3,1s1.3-0.4,1.4-0.1c0.2,0.5,0.8,0.8,1.4,0.6c0.5,0,1-0.2,1.3-0.6c-0.1-0.2-0.1-0.5,0.1-0.6
		c0.5-0.4,0.5-1.1,0.1-1.6c0,0,0,0-0.1-0.1c-0.2-0.1-0.3-0.2-0.5-0.3l-0.1-1l0.7-2.9c1.6-0.1,3.1-0.3,4.7-0.6
		c0.2-1.1,0.2-9.6,0.2-10.4c0.3-0.3,0.4-0.8,0.2-1.3"/>
	<path id="Fill-17_2_" class="st0" d="M41.6,23.5L41.6,23.5l-0.9,0.1C41.1,23.5,41.4,23.5,41.6,23.5 M33.4,24.2h-0.3H33.4 M37,7
		L37.7,7C37.5,7,37.3,7,37,7 M39.1,36.6c-0.1,0.2-0.1,0.4,0,0.6c0,0.2,0,0.3-0.1,0.4c0,0.2-0.1,0.4-0.1,0.6c-0.2,0.3-0.4,0.6-0.5,1
		c-0.2,0.8-0.6,1.6-0.9,2.3c-0.1,0-0.2-0.1-0.2-0.2c0-0.4-0.1-0.7-0.2-1.1c-0.1-0.6-0.1-1.1,0-1.7c-0.1-0.1-0.2-0.2-0.2-0.4
		c0-0.2,0.3-0.7,0.3-1s0-3.2,0.1-3.4s0.1-0.4,0.1-0.6s0.1-2.4,0.1-2.7c0.4,0.4,0.7,0.9,1,1.4c0,0.6,0.1,1.3,0.4,1.9
		c0.1,0.1-0.2,2,0.2,2.2C39.2,36.1,39.2,36.3,39.1,36.6 M46.6,27.3c-0.3-0.5-0.5-1-0.6-1.5c0-0.2-0.5-1.2-0.5-1.4
		c0-0.8-0.2-1.5-0.4-2.2c-0.2-0.8-0.4-1.5-0.5-2.3c0-0.6-0.2-1.1-0.3-1.7c-0.4-0.8-0.6-1.6-0.8-2.4c-0.1-0.8-0.2-1.6-0.4-2.3
		l0.4-0.1c0-0.1-0.1-0.3-0.2-0.4c-0.1-0.2-0.2-0.5-0.1-0.8c0-1.1-0.2-2.2-0.5-3.2c-0.5-0.7-1.2-1.1-1.9-1.3c-0.7-0.4-1.4-0.7-2.1-1
		h-0.1v-1c0.1-0.2,0.3-0.5,0.4-0.7c0-0.2,0-0.4,0-0.6c0.1,0,0.1,0,0.2-0.1c0.1-0.2,0.2-0.5,0.2-0.7c0.1-0.2,0-0.5-0.2-0.6
		c-0.1,0-0.2,0-0.3,0.1c0,0,0-0.6,0-0.7c0-0.5-0.1-1-0.4-1.4c-0.4-0.7-1.2-1.1-2-0.9c-0.6,0-1.1,0.2-1.5,0.7
		c-0.5,0.4-0.7,0.9-0.6,1.5c0,0.4,0,0.8,0.1,1.2c0,0.1,0.1,0.4,0,0.4c-0.1,0-0.1,0-0.1,0.1c0,0.3,0.1,0.6,0.2,0.8
		c0.1,0.2,0.2,0.3,0.4,0.4C34.9,5.3,35,5.4,35,5.5c0.1,0.3,0.1,0.6,0,0.9l-0.3,0.4c-0.3,0-0.5,0.1-0.8,0.2c-0.6,0.3-1.1,0.6-1.8,0.8
		c-0.4,0-0.8,0.1-1.1,0.3c-0.3,0.4-0.5,0.8-0.5,1.2c0,1.1,0.1,2.2,0.4,3.2c0.2,0.3,0.3,0.6,0.4,0.9h0.1c0.2,0.5,0.5,1,0.8,1.5
		c0.1,0.3,0.2,0.6,0.3,0.9c0,0.2,0,0.4,0.2,0.6c0.1,0.5,0.1,1,0.1,1.5c0,0.5,0,0.9,0,1.4c-0.2,0.3-0.3,0.7-0.4,1c0,0.3,0,2,0,2
		c-0.1,0.3-0.2,0.7-0.2,1c0.1,0.1,0.2,0.3,0.3,0.3c0,0.4,0,1.1,0,1.2s-0.1,0.9-0.1,1.3s0.2,2.3,0.2,2.7s0.2,4,0.3,4.4
		c0.2,0.5,0.4,1,0.5,1.5c0,0.6,0.1,1.2,0.2,1.8c0.1,0.3,0.1,2.2,0.1,2.7s0.3,2.6,0.5,3.2s0.8,2.7,0.8,2.7c-0.1,0.4-0.1,0.9,0.1,1.3
		c0.1,0.3,0.2,0.6,0.2,0.9c-0.3,0.1-0.5,0.3-0.6,0.6c0.1,0.4,0.3,0.8,0.5,1.2c-0.2,0.1-0.4,0.2-0.6,0.3c-0.4,0.1-0.8,0.3-1.1,0.6
		c-0.1,0.2-0.1,0.5,0.2,0.6s1.4,0.2,1.5,0.2c0.5,0.3,1.1,0.4,1.6,0.3c1.3,0,1.3-0.1,1.3-0.2s0-0.4-0.1-0.4c-0.2-0.3-0.2-0.7-0.2-1
		c0.1-0.2,0.2-0.3,0.3-0.5c0.1,0.2,0.4,0.5,0.6,0.9c0.6,0.8,1.5,1.3,2.4,1.4c0.9,0,0.7-0.3,0.8-0.7c-0.1-0.5-0.4-0.9-0.7-1.2l-1-1.3
		c-0.3-0.4-0.5-0.9-0.9-1.3c0-0.2,0.1-0.4,0.1-0.4s0.5-0.8,0.6-1.1c0.1-0.3,0.1-0.6,0.2-0.9c0-0.1,0.3-0.6,0.4-0.7s0.1-1.3,0.2-1.5
		s1.3-3.1,1.4-3.3s-0.1-0.3,0-0.5s0.4-0.4,0.4-0.6c0-0.3,0-0.6,0-0.9c0-0.1,0.1-0.2,0.2-0.3c0-0.3-0.1-0.7-0.2-1
		c0.1-0.2,0.2-0.3,0.3-0.4c0.1-0.3,0.2-0.7,0.2-1c0-0.4,0-2.3-0.1-2.8s-0.2-2.5-0.2-2.7s-0.1-0.2-0.1-0.4c0-1-0.1-2.1-0.2-3.1
		c-0.1-0.2-0.2-0.5-0.3-0.8l-0.1-1c0.1-0.2,0.1-0.4,0.1-0.5l-0.2-0.5c0-0.2,0.1-0.3,0.1-0.5c0-0.2-0.1-0.4-0.2-0.6
		c0-0.1-0.1-0.1-0.1-0.2c0.1-0.1,0.1-0.1,0.1-0.2c0-0.1-0.3-1.1-0.3-1.2c0-0.5,0-1,0-1.4c-0.1-0.2,0-1.6,0-1.7l0,0l0.3,0.7
		c0,0.4,0.1,0.8,0.2,1.1c0,0.2,0.1,1,0.1,1c0,0.3,0,0.7,0.2,1c0.2,0.3,1.7,3.3,1.8,3.6s0.3,0.8,0.3,0.8c0.1,0.2,0.2,0.5,0.2,0.7
		c0,0.1-0.1,0.4-0.1,0.6c0,0.3-0.1,0.5-0.1,0.8l0,0c-0.3,0-0.6,0.2-0.7,0.5c-0.2,0.3-0.2,0.7,0,1c0,0,0,0.1,0,0.1
		c0.2,0.3,0.6,0.5,1,0.4c0.2,0.2,0.4,0.3,0.6,0.4c0.2,0.1,0.5,0.2,0.7,0.1c0.1,0.1,0.2,0.1,0.3,0c0,0,0,0,0,0
		c0.2-0.1,0.4-0.3,0.6-0.6c0-0.4,0-0.8,0-1.3c0-0.1-0.1-0.2-0.1-0.3"/>
	<path id="Fill-62_1_" class="st1" d="M109.7,42l-1.6-2.1c0,0-0.4-6.2-0.5-8.4c-0.1-2.4-1.5-3.1-5.1-3.7s-6.7-0.8-10.7-3.4
		c-8-5.2-17.3-8-26.8-8c-13.3,0-18,2.2-21.8,4.2c-3,1.6-10,6.4-12.5,8.2c-2.5-2.3-14.5-12.5-23.4-12.2l-1.7,1.3
		c6.9-1.8,18,8.7,21.2,11.8c-3.9,0.4-7.8,1-11.6,1.7c-6.9,1.4-12,3.3-12.9,4.9c-2.8,4.5-3,11.7-0.3,15.3C3.7,54,13,53.9,13,53.9
		l15.8-0.3l51.6-0.8l16.4-0.6c9.3-0.1,11.6-2.2,12.7-5.5C110,45.2,110.1,43.6,109.7,42"/>
	<path id="Fill-63_1_" class="st2" d="M4.6,37.2H4.5l0,0c0,0-3.3,1.1-3.6,1.9c-0.5,1.5-0.8,3.1-0.9,4.7l2.6-2.1c0,0,8.4-2.1,8.9-4.6
		S4.6,37.1,4.6,37.2"/>
	<path id="Fill-64_1_" class="st2" d="M77.3,52.8c-0.7-1.4-0.5-1.1-0.5-2.8c0.1-5.5,4.7-9.9,10.2-9.8c5.5,0.1,9.9,4.7,9.8,10.2
		c0,1.4,0,0.7-0.5,1.8"/>
	<path id="Fill-65_1_" class="st3" d="M14.8,48.7c-0.2,4.1,3,7.5,7.1,7.6s7.5-3,7.6-7.1c0.2-4.1-3-7.5-7.1-7.6
		C18.4,41.4,14.9,44.6,14.8,48.7"/>
	<path id="Fill-66_1_" class="st2" d="M79.8,49.4l28.9-0.8c0,0-1.2,2.2-5.4,3c-3.5,0.8-20.2,1.2-22.8,0.6S79.8,49.4,79.8,49.4"/>
	<path id="Fill-67_1_" class="st4" d="M15.9,48.7c-0.1,3.4,2.6,6.4,6,6.5c3.4,0.1,6.4-2.6,6.5-6c0.1-3.4-2.5-6.3-6-6.5
		C18.9,42.6,16,45.3,15.9,48.7C15.9,48.7,15.9,48.7,15.9,48.7 M22.1,57.5h-0.4c-4.7-0.2-8.3-4.2-8.1-8.9c0.1-2.2,1.1-4.4,2.7-5.9
		c1.6-1.5,3.8-2.3,6.1-2.2c4.7,0.1,8.4,4,8.3,8.7C30.7,53.8,26.8,57.6,22.1,57.5"/>
	<path id="Fill-68_1_" class="st5" d="M80.4,49.9c-0.1,3.5,2.6,6.4,6.1,6.6c3.5,0.1,6.4-2.6,6.6-6.1c0.1-3.5-2.6-6.4-6.1-6.6l0,0
		C83.5,43.7,80.6,46.4,80.4,49.9"/>
	<path id="Fill-69_1_" class="st6" d="M5,37.5c0,0,5.9-2,5.5-0.1s-7.2,3.6-7.2,3.6c-0.3-0.6-0.3-1.2-0.1-1.8
		C3.7,38.5,4.3,37.9,5,37.5"/>
	<polygon id="Fill-70_1_" class="st2" points="78.9,52.6 29.7,53.6 28.7,49.8 80.9,49.4 	"/>
	<path id="Fill-71_1_" class="st2" d="M13.6,53.4c-2.4-4.8-0.6-10.6,4.2-13c4.8-2.4,10.6-0.6,13,4.2c1.3,2.6,1.4,5.7,0.2,8.3"/>
	<path id="Fill-72_1_" class="st2" d="M28.9,49.8c0,0-27.6-0.1-28.1-0.4c0,0,0.7,2.1,1.7,2.6c1.3,0.7,2.7,1.2,4.1,1.3
		c2.9,0.4,5.9,0.5,8.9,0.4C19,53.5,28.9,49.8,28.9,49.8"/>
	<path id="Fill-73_1_" class="st5" d="M14.8,48.7c-0.2,4.1,3,7.5,7.1,7.6s7.5-3,7.6-7.1c0.2-4.1-3-7.5-7.1-7.6
		C18.4,41.4,14.9,44.6,14.8,48.7"/>
	<path id="Fill-74_1_" class="st7" d="M22.4,42.7c-3.5-0.1-6.4,2.5-6.5,6c-0.1,3.5,2.5,6.4,6,6.5c3.5,0.1,6.4-2.5,6.5-6c0,0,0,0,0,0
		C28.5,45.8,25.8,42.9,22.4,42.7L22.4,42.7 M21.8,57.5c-4.7-0.2-8.3-4.1-8.2-8.8c0.2-4.7,4.1-8.3,8.8-8.2c4.7,0.2,8.3,4.1,8.2,8.8
		c0,0,0,0,0,0C30.4,54,26.5,57.7,21.8,57.5"/>
	<path id="Fill-75_1_" class="st7" d="M21.9,54.7c-3.2-0.1-5.6-2.8-5.5-5.9s2.8-5.6,5.9-5.5c3.2,0.1,5.6,2.8,5.5,5.9c0,0,0,0,0,0
		C27.7,52.4,25.1,54.8,21.9,54.7 M22.5,39.9c-5-0.2-9.1,3.7-9.3,8.7c-0.2,5,3.7,9.1,8.7,9.3c4.9,0.2,9.1-3.6,9.3-8.6
		C31.4,44.4,27.5,40.2,22.5,39.9C22.6,39.9,22.5,39.9,22.5,39.9 M21.9,55.2c3.5,0.1,6.4-2.5,6.5-6c0.1-3.5-2.5-6.4-6-6.5
		c-3.5-0.1-6.4,2.5-6.5,6c0,0,0,0,0,0C15.7,52.2,18.4,55.1,21.9,55.2L21.9,55.2 M22.5,40.5c4.7,0.2,8.3,4.1,8.2,8.8
		c-0.2,4.7-4.1,8.3-8.8,8.2c-4.7-0.2-8.3-4.1-8.2-8.8c0,0,0,0,0,0C13.8,43.9,17.8,40.3,22.5,40.5"/>
	<path id="Fill-76_1_" class="st2" d="M31.5,31.5c0,0,11.5-11.5,20.6-13.1s20.3-2.4,30.5,2.8c5.8,3.3,7.3,5.7,7.3,5.7l-1.3,2.2
		L31.5,31.5z"/>
	<path id="Fill-77_1_" class="st3" d="M60.3,29.5l20.3-0.7l0.4-6.9l-0.3-0.2C74.8,19,68.4,17.8,62,18.2L60.3,29.5z"/>
	<path id="Fill-78_1_" class="st3" d="M82.3,22.6l-0.4,6.1l4.4-0.2l1.1-1.9C87.4,26.7,86.3,25,82.3,22.6"/>
	<path id="Fill-79_1_" class="st3" d="M59.2,18.5c-2.2,0.2-4.3,0.5-6.4,0.8C44.5,20.6,34,30.5,34,30.5l23.4-0.9L59.2,18.5z"/>
	<path id="Fill-80_1_" class="st7" d="M60.3,29.5l20.3-0.7l0.4-6.9l-0.3-0.2C74.8,19,68.4,17.8,62,18.2L60.3,29.5z"/>
	<path id="Fill-81_1_" class="st7" d="M82.3,22.6l-0.4,6.1l4.4-0.2l1.1-1.9C87.4,26.7,86.3,25,82.3,22.6"/>
	<path id="Fill-82_1_" class="st7" d="M59.2,18.5c-2.2,0.2-4.3,0.5-6.4,0.8C44.5,20.6,34,30.5,34,30.5l23.4-0.9L59.2,18.5z"/>
	<path id="Fill-83_1_" class="st7" d="M87,43.9c-3.5-0.1-6.4,2.5-6.5,6c-0.1,3.5,2.5,6.4,6,6.5c3.5,0.1,6.4-2.5,6.5-6c0,0,0,0,0,0
		C93.2,47,90.5,44.1,87,43.9L87,43.9 M86.4,58.7c-4.7-0.2-8.3-4.2-8.1-8.9s4.2-8.3,8.9-8.1c4.7,0.2,8.3,4.1,8.1,8.8
		C95.1,55.2,91.2,58.8,86.4,58.7"/>
	<path id="Fill-84_1_" class="st7" d="M86.5,55.9c-3.2-0.1-5.6-2.8-5.5-5.9c0.1-3.2,2.8-5.6,5.9-5.5c3.2,0.1,5.6,2.8,5.5,5.9
		c0,0,0,0,0,0C92.3,53.6,89.7,56,86.5,55.9 M87.1,41.1c-5-0.2-9.1,3.7-9.3,8.7s3.7,9.1,8.7,9.3c4.9,0.2,9.1-3.6,9.3-8.6
		C96,45.6,92.2,41.4,87.1,41.1C87.2,41.1,87.2,41.1,87.1,41.1 M86.5,56.4c3.5,0.1,6.4-2.5,6.5-6c0.1-3.5-2.5-6.4-6-6.5
		c-3.5-0.1-6.4,2.5-6.5,6c0,0,0,0,0,0C80.4,53.4,83.1,56.3,86.5,56.4L86.5,56.4 M87.1,41.7c4.7,0.2,8.3,4.1,8.2,8.8
		s-4.1,8.3-8.8,8.2s-8.3-4.1-8.2-8.8c0,0,0,0,0,0C78.5,45.1,82.4,41.5,87.1,41.7"/>
	<path id="Fill-85_1_" class="st7" d="M21.7,44.6c-0.8,0.1-1.5,0.3-2.1,0.8l2,2.2L21.7,44.6z"/>
	<path id="Fill-86_1_" class="st7" d="M20.8,48.3l-2-2.2c-0.5,0.6-0.8,1.3-1,2L20.8,48.3z"/>
	<path id="Fill-87_1_" class="st7" d="M20.7,49.4l-3-0.1c0.1,0.8,0.3,1.5,0.8,2.2L20.7,49.4z"/>
	<path id="Fill-88_1_" class="st7" d="M22.9,44.6l-0.1,2.9l2.1-2C24.4,45,23.7,44.7,22.9,44.6"/>
	<path id="Fill-89_1_" class="st7" d="M23.6,48.4l3,0.1c-0.1-0.8-0.4-1.5-0.8-2.1L23.6,48.4z"/>
	<path id="Fill-90_1_" class="st7" d="M23.5,49.5l2.1,2.2c0.5-0.6,0.8-1.3,0.9-2.1L23.5,49.5z"/>
	<path id="Fill-91_1_" class="st7" d="M22.7,50.3l-0.1,3.1c0.8-0.1,1.5-0.4,2.2-0.8L22.7,50.3z"/>
	<path id="Fill-92_1_" class="st7" d="M21.5,50.3l-2.2,2.1c0.6,0.5,1.3,0.9,2.1,1L21.5,50.3z"/>
	<path id="Fill-93_1_" class="st7" d="M22.7,49c0,0.3-0.3,0.6-0.6,0.5s-0.6-0.3-0.5-0.6c0-0.3,0.3-0.6,0.6-0.5
		C22.5,48.4,22.7,48.7,22.7,49C22.7,49,22.7,49,22.7,49"/>
	<path id="Fill-94_1_" class="st7" d="M86.3,45.7c-0.8,0.1-1.5,0.3-2.1,0.8l2,2.2L86.3,45.7z"/>
	<path id="Fill-95_1_" class="st7" d="M85.4,49.5l-2-2.2c-0.5,0.6-0.8,1.3-1,2L85.4,49.5z"/>
	<path id="Fill-96_1_" class="st7" d="M85.3,50.6l-3-0.1c0.1,0.8,0.3,1.5,0.8,2.2L85.3,50.6z"/>
	<path id="Fill-97_1_" class="st7" d="M87.5,45.8l-0.1,2.9l2.1-2C89,46.2,88.3,45.9,87.5,45.8"/>
	<path id="Fill-98_1_" class="st7" d="M88.2,49.6l3,0.1c-0.1-0.8-0.4-1.5-0.8-2.1L88.2,49.6z"/>
	<path id="Fill-99_1_" class="st7" d="M88.1,50.7l2.1,2.2c0.5-0.6,0.8-1.3,0.9-2.1L88.1,50.7z"/>
	<path id="Fill-100_1_" class="st7" d="M87.3,51.5l-0.1,3.1c0.8-0.1,1.5-0.4,2.2-0.8L87.3,51.5z"/>
	<path id="Fill-101_1_" class="st7" d="M86.1,51.5l-2.2,2.1c0.6,0.5,1.3,0.9,2.1,1L86.1,51.5z"/>
	<path id="Fill-102_1_" class="st7" d="M87.3,50.2c0,0.3-0.3,0.6-0.6,0.5s-0.6-0.3-0.5-0.6c0-0.3,0.3-0.6,0.6-0.5
		C87,49.6,87.3,49.9,87.3,50.2C87.3,50.2,87.3,50.2,87.3,50.2"/>
	<path id="Fill-103_1_" class="st2" d="M53.6,36.5c0.1,0.4-0.2,0.8-0.6,0.8h-4c-0.5-0.2-0.7-0.7-0.5-1.1c0.1-0.2,0.3-0.4,0.5-0.5h4
		C53.4,35.7,53.6,36.1,53.6,36.5"/>
	<path id="Fill-104_1_" class="st2" d="M80.3,36.3c0.1,0.4-0.2,0.8-0.6,0.8h-4C75.2,37,75,36.5,75.2,36c0.1-0.2,0.3-0.4,0.5-0.5h4
		C80.1,35.6,80.3,35.9,80.3,36.3"/>
	<path id="Fill-105_1_" class="st2" d="M77.1,44.3c0-0.4-0.3-0.8-0.7-0.8c0,0,0,0-0.1,0l-41.6,0.5c-0.4,0-0.8,0.5-0.7,0.9
		c0,0.4,0.3,0.7,0.7,0.7l41.6-0.5C76.7,45.1,77,44.7,77.1,44.3"/>
	<path id="Fill-106_1_" class="st8" d="M107.5,29.9c0,0-2-0.4-2.5,1c-0.5,1.4-0.3,5.2,0.7,5.9c0.8,0.4,1.7,0.4,2.4,0L107.5,29.9z"/>
</g>
</svg>
