<svg id="Layer_1" data-name="Layer 1" xmlns="http://www.w3.org/2000/svg" viewBox="0 0 421.65 74.13"><defs><style>.cls-1{fill:#fff;}</style></defs><title>ghr_rescue</title><path class="cls-1" d="M145.32,25.63a11.62,11.62,0,0,0-2.37-.95A10.71,10.71,0,0,0,140,24.3a9.73,9.73,0,0,0-7.83,3.56q-3,3.56-3,9.54v24h-14V11.1h14v7.78a18.92,18.92,0,0,1,5.89-6.41,13.49,13.49,0,0,1,7.59-2.33,15.37,15.37,0,0,1,3.32.38,12,12,0,0,1,2.66.85Z"/><path class="cls-1" d="M151.11,36.64a31.07,31.07,0,0,1,1.76-10.58,24.2,24.2,0,0,1,5.08-8.45,23.37,23.37,0,0,1,8.21-5.6,31,31,0,0,1,21.6-.19,21.74,21.74,0,0,1,12.81,13.12,29.4,29.4,0,0,1,1.71,10.23q0,1.23-.09,2.32t-.19,2H166.3a10.32,10.32,0,0,0,3.75,8.15,14.07,14.07,0,0,0,9.06,2.84A19.15,19.15,0,0,0,186.95,49a18.26,18.26,0,0,0,6-4.47l8.73,8.18A29.71,29.71,0,0,1,191.79,60a32.37,32.37,0,0,1-13.53,2.62,33,33,0,0,1-11.82-1.95,23.55,23.55,0,0,1-8.5-5.41A22.19,22.19,0,0,1,152.82,47,30.74,30.74,0,0,1,151.11,36.64Zm37.21-6.08q-.38-5.22-3.42-7.64a11.8,11.8,0,0,0-7.59-2.42,11,11,0,0,0-7.59,2.61,11,11,0,0,0-3.42,7.45Z"/><path class="cls-1" d="M253.44,45.46a15.54,15.54,0,0,1-1.66,7.21,15.29,15.29,0,0,1-4.65,5.41A22.47,22.47,0,0,1,240,61.46a36.21,36.21,0,0,1-23.49-1.76,28.7,28.7,0,0,1-9.78-7.4l9.11-7.4a17.26,17.26,0,0,0,6.41,5.27A20.23,20.23,0,0,0,231.14,52q4.37,0,6.55-1.38a4.24,4.24,0,0,0,2.18-3.75,3.34,3.34,0,0,0-1-2.61,7.09,7.09,0,0,0-2.61-1.42,21.72,21.72,0,0,0-3.65-.81q-2-.29-4.13-.67a50.37,50.37,0,0,1-6.88-1.61,21.72,21.72,0,0,1-6-2.85,14.16,14.16,0,0,1-4.22-4.56,12.91,12.91,0,0,1-1.61-6.64A14.49,14.49,0,0,1,211.3,19,13.9,13.9,0,0,1,215.57,14a20.24,20.24,0,0,1,6.5-3,30.56,30.56,0,0,1,8.21-1,29.34,29.34,0,0,1,13,2.66A28.22,28.22,0,0,1,252,19l-8.26,6.93a16.57,16.57,0,0,0-5.6-4,18.49,18.49,0,0,0-7.78-1.57q-7.4,0-7.4,4.46a3.08,3.08,0,0,0,.85,2.28,6.62,6.62,0,0,0,2.33,1.42,17.72,17.72,0,0,0,3.42.9l4.22.71a59.8,59.8,0,0,1,7.45,1.57,22.65,22.65,0,0,1,6.26,2.75,13.72,13.72,0,0,1,4.32,4.41A12.61,12.61,0,0,1,253.44,45.46Z"/><path class="cls-1" d="M285.15,10a26.85,26.85,0,0,1,7.4,1,24.36,24.36,0,0,1,6,2.57,22.12,22.12,0,0,1,4.7,3.81A25.47,25.47,0,0,1,306.69,22l-10,7a20.78,20.78,0,0,0-4.32-5,9.74,9.74,0,0,0-6.31-1.89,11.61,11.61,0,0,0-5,1,10.43,10.43,0,0,0-3.7,2.92,12.75,12.75,0,0,0-2.28,4.48,20.19,20.19,0,0,0-.76,5.7q0,6.41,3.13,10.33t9,3.91a12.54,12.54,0,0,0,6.93-1.89,20.3,20.3,0,0,0,5.32-5.1l8.83,8.19a36.08,36.08,0,0,1-3.75,4,26.91,26.91,0,0,1-11.06,6,28.27,28.27,0,0,1-7.59,1,27.2,27.2,0,0,1-10.63-2,23.62,23.62,0,0,1-13.29-13.81,29.56,29.56,0,0,1-1.8-10.49,30,30,0,0,1,1.8-10.54A23.53,23.53,0,0,1,274.52,12,27.2,27.2,0,0,1,285.15,10Z"/><path class="cls-1" d="M361.37,11.1V61.41h-14V55.53a22.32,22.32,0,0,1-6.93,5.17,19.42,19.42,0,0,1-8.45,1.85,19,19,0,0,1-7.5-1.38,14.45,14.45,0,0,1-5.36-3.84,16.1,16.1,0,0,1-3.18-5.79,23.94,23.94,0,0,1-1-7.21V11.1h14v26.1q0,2.09.09,4.32a13.27,13.27,0,0,0,.81,4.13,6.8,6.8,0,0,0,2.37,3.13A8.12,8.12,0,0,0,337.07,50q5.5,0,7.88-3.56t2.37-10.58V11.1Z"/><path class="cls-1" d="M370.48,36.64a31.06,31.06,0,0,1,1.76-10.58,24.19,24.19,0,0,1,5.08-8.45,23.37,23.37,0,0,1,8.21-5.6,31,31,0,0,1,21.6-.19,21.74,21.74,0,0,1,12.81,13.12,29.41,29.41,0,0,1,1.71,10.23q0,1.23-.1,2.32t-.19,2H385.67a10.32,10.32,0,0,0,3.75,8.15,14.08,14.08,0,0,0,9.07,2.84A19.14,19.14,0,0,0,406.32,49a18.26,18.26,0,0,0,6-4.47l8.73,8.18A29.7,29.7,0,0,1,411.16,60a32.38,32.38,0,0,1-13.53,2.62,33,33,0,0,1-11.82-1.95,23.55,23.55,0,0,1-8.5-5.41A22.2,22.2,0,0,1,372.19,47,30.75,30.75,0,0,1,370.48,36.64Zm37.21-6.08q-.38-5.22-3.42-7.64a11.81,11.81,0,0,0-7.59-2.42,11,11,0,0,0-7.59,2.61,10.94,10.94,0,0,0-3.42,7.45Z"/><path class="cls-1" d="M47.95,0C21.51,0,0,16.34,0,36.43s21.51,37.7,47.95,37.7,47.94-17.62,47.94-37.7S74.39,0,47.95,0ZM80,14.9l-1.13.78c-1.44,1-2.9,1.38-3.8,1-.14,0-1.33-.72-1.33-.72a2.69,2.69,0,0,0-.28-.15l-.41-.06-.45.09-.26.06.41.47a15,15,0,0,1,1.89,3l.37.68.35.81.07.17.45,1.17.08.25.25.68,1,3.36a39.74,39.74,0,0,1,1.24,8.63s0,.28,0,.28l-1.12,3.16c-1.15,3.27-2.61,7.34-2.93,9l-.07.2A32.58,32.58,0,0,0,68,57.14c-.15.3-.25.34-.29.35s-.51-.31-.7-.48a4.92,4.92,0,0,1-1.18-3.7,6.11,6.11,0,0,1,2.24-4.63c.22-.17.14-.48.09-.66-.38-2.15.23-5.44,1.55-6.37l.34-.25-.33-.25C66,38.2,64.11,32.76,64,28.7l0-.53-.59.25a4,4,0,0,0-.29.4,12.82,12.82,0,0,0-.21,2.37,20,20,0,0,0,.56,4.56,14.46,14.46,0,0,0,3.26,6.19l.07.08c-.7.89-1,3-1,4.71A7.76,7.76,0,0,0,65.8,48a6.92,6.92,0,0,0-2.36,4.86s.06,1.46.06,1.49-.86,1.1-.86,1.1l-.17.24c-1.68,2.32-2.87,3.94-5.68,5.39A27.77,27.77,0,0,1,43.9,63.42a1.32,1.32,0,0,1-1.26-1.5.88.88,0,0,1,.19-.52l.37-.4c3.65.41,7.13,0,8.58-.8.06-.06.51-.72.51-.72l.18-.31-.35.08C49,60,42.83,59,39.57,57.62c-3.63-1.55-4.74-3-7.7-6.94L31,49.59a6.86,6.86,0,0,0-.85-3.15,5.61,5.61,0,0,0-1.35-1.59,8.41,8.41,0,0,0,.35-2.54,7,7,0,0,0-.7-3.38c2.21-1.73,3.33-3.5,3.29-5.54a9.87,9.87,0,0,0-.55-2.44l-.85-.39.06.56c.34,3.44-2.87,5.67-5,7.16l-.62.43.41.26c1.67,1,1.69,4.54,1.31,6.5l0,.12.09.16.1,0,.8.65a6.42,6.42,0,0,1-.3,7.79c-.37.39-.57.44-.68.42-.27-.06-.49-.7-.55-.91l-.52-1.08A37.19,37.19,0,0,0,20,43.74l-.07-.27c-.55-4.41-1.23-7.68-1.9-10.83l-.37-1.71,0-.45a27.82,27.82,0,0,1,2.45-9l.74-1.91.61-1.46a2.18,2.18,0,0,0,.11-.22A13.28,13.28,0,0,1,24.34,15l.52-.39-.68-.28a8.84,8.84,0,0,0-2.64.8l-.23.11a4,4,0,0,1-2.92.48l-2-1.22A42.12,42.12,0,0,1,31.25,5.37l.26.27,1.94,1.77s1.11,1,1.11,1c.82.78,1,1.19,1,1.34s-.19.23-.33.31a1.57,1.57,0,0,1-.37.14l-.09.74.45,0c2.55-.06,5,1.67,6.52,3.14a18.51,18.51,0,0,1,5.19,10.66l2.11,11,.8,1.69.15.34.35.72a6.64,6.64,0,0,0,.8,1.39l1.09.88,1.52,1.56.45.49.73.73c.06,0,2.21.32,2.21.32,3.74.62,3.58,2.71,3.58,2.71s2.23-3.42-3.09-4.63l-1.71-.32h0s-.6-.85-.6-.85l-.2-.22-1.62-1.6-.73-.7s-.66-1.78-.66-1.78l-.94-2.28a21,21,0,0,1-.61-3.36c0-.06-.16-1.12-.16-1.12l-.7-4.61c0-.08.16-.9.16-.9a22.86,22.86,0,0,1,1.92-5.69,11.52,11.52,0,0,1,3.61-4.09,18.77,18.77,0,0,1,5.86-2,.85.85,0,0,0,.81-.69l.06-.19-.18,0a5,5,0,0,1-1.76-.55.42.42,0,0,1,0-.14,1.45,1.45,0,0,1,.29-.64l1.15-1.11.67-.67,2.92-2.82A41.81,41.81,0,0,1,80,14.9ZM40.91,60.57c-3.41,1.74-5.3.23-4.47-1.6A12.71,12.71,0,0,0,40.91,60.57ZM35.05,58c-2.33.64-3.19-1-2.64-2.33A20.69,20.69,0,0,0,35.05,58ZM48,2.49A49.52,49.52,0,0,1,62.59,4.67L59.94,7.42C58,9.47,55.87,11.79,54.88,12.2A11.87,11.87,0,0,0,49,17.84l-.66,1.74a17,17,0,0,0-2.91-5.4,12.82,12.82,0,0,0-5.13-3.72c-1.08-1-4.52-4.18-6.58-5.9A49.58,49.58,0,0,1,48,2.49Zm0,69.15C25.06,71.64,6.44,55.2,6.44,36.47a29.92,29.92,0,0,1,8-20l.38.27c.07,0,3,2.44,3.38,2.8L16.9,23.05c-1.09,2.75-2.19,5.51-2.25,7.69l0,.35s.94,4.94.94,4.94l.08.36c.53,2.57,1.12,5.49,1.37,7.59.06.59.2,1,.43,1.09,1.43,1.49,3.75,4.5,6.57,10.25.08.15.12.24.17.31a2.91,2.91,0,0,0,1,1.58,2.41,2.41,0,0,0,2.13,0,8,8,0,0,0,3.09-3.86l.91,1.16c-2.42,4.2,1.86,5.75,3.38,5.16-.88,2.54,2.36,4.59,5.42,3.23.4,1.65,1.7,2.13,3,2.37a19.4,19.4,0,0,0,5.67.14A28.37,28.37,0,0,0,58.2,63a15.94,15.94,0,0,0,6-5.15s.2-.26.32-.43A8.3,8.3,0,0,0,65.58,59c1,1,2,1.44,2.75,1.3a1.74,1.74,0,0,0,1.28-1.08,45,45,0,0,1,6.94-10.45l.23-.45c.53-2,2.42-7,3.42-9.65l.72-1.93s.14-.46.14-.46c0-.77.07-1.54.07-2.3a30,30,0,0,0-1.45-9.54,17.24,17.24,0,0,0-1.37-3.1l-.51-.93A18.46,18.46,0,0,1,82,17.05a29.78,29.78,0,0,1,7.47,19.42C89.46,55.2,70.85,71.64,48,71.64Z"/><path class="cls-1" d="M50.24,54.38a23.89,23.89,0,0,0-2.88.09h-.16s-1.64-1.08-1.64-1.08L44.88,53l-2.27-1.19-1.38-.54S36.91,45,36.91,45a3.3,3.3,0,0,0,.67-2.16c-.1.15-.17.19-.68.63a11,11,0,0,1-3.09,1.38l-.46.12L37,49.78l1.78,2.33.82.84,1.66.93,1.58.86.2.12,1.15.64,1.95,1.07a1.56,1.56,0,0,0,.35,0L49,56.44a10.66,10.66,0,0,1,4.24.51,1.46,1.46,0,0,1,.82,1.79s1.28-.91,1-2C55,55.81,53.9,54.6,50.24,54.38Z"/><path class="cls-1" d="M58,46.87l-2.45-.34s-1.31-.91-1.31-.91l-1.72-1.07-.45-.27-1.41-.61L47,37.75a3.13,3.13,0,0,0-.27-2.07l-.28.67a4.66,4.66,0,0,1-1.84,1.87l-.29.16,3.85,5.5.23.36.73,1c.1.1,1.61.95,1.61.95l.57.32,1.73,1,1.59,1.06.12,0,2.37.15a5.19,5.19,0,0,1,2.69,1,2.16,2.16,0,0,1,.7,2.7s2-1.89.69-3.94C60.66,47.78,60,47.1,58,46.87Z"/><path class="cls-1" d="M52.81,50.87S51.36,50,51.36,50l-.42-.25-2.33-1.2-1.9-.64h0c0-.07-.44-.83-.44-.83a27.36,27.36,0,0,0-2.2-3.17l-.23-.27s-1.29-1.78-1.44-2a3.74,3.74,0,0,0,.06-2.14,6.16,6.16,0,0,1-.58.87,8.07,8.07,0,0,1-2,1.57l-.36.23,4.76,6.5.5.71.25.32c.1.09,1.65.71,1.65.71a27.31,27.31,0,0,1,3.11,1.47l1.75,1c.14.06,1.94-.08,3.13,0A4.22,4.22,0,0,1,58,54.48a2.08,2.08,0,0,1-.18,2.38A3.41,3.41,0,0,0,59.57,54C59.46,52.34,58,50.81,52.81,50.87Z"/></svg>