<?xml version="1.0" encoding="utf-8"?>
<!-- Generator: Adobe Illustrator 21.0.0, SVG Export Plug-In . SVG Version: 6.00 Build 0)  -->
<svg version="1.1" id="Layer_1" xmlns="http://www.w3.org/2000/svg" xmlns:xlink="http://www.w3.org/1999/xlink" x="0px" y="0px"
	 viewBox="0 0 1946 200" style="enable-background:new 0 0 1946 200;" xml:space="preserve">
<style type="text/css">
	.st0{fill:url(#MW-Card-Header_1_);}
	.st1{fill:#4A8919;}
	.st2{fill:#282828;}
	.st3{fill:#424143;}
	.st4{fill:#BCBDBF;}
	.st5{fill:#E6E6E6;}
	.st6{fill:#FFFFFF;}
	.st7{fill:#F9A94B;}
	.st8{fill:#333333;}
	.st9{fill:#CE1F2F;}
	.st10{fill:#221F1F;}
	.st11{fill:#F8931E;}
</style>
<linearGradient id="MW-Card-Header_1_" gradientUnits="userSpaceOnUse" x1="774.5029" y1="28.6672" x2="774.5029" y2="27.3331" gradientTransform="matrix(375 0 0 90 -289475 -2455)">
	<stop  offset="0" style="stop-color:#00C7ED"/>
	<stop  offset="1" style="stop-color:#0078AB"/>
</linearGradient>
<path id="MW-Card-Header" class="st0" d="M-18.8,0H1946v160.5H-18.8V0z"/>
<path id="Fill-18" class="st1" d="M1666.8,125.9c-0.4,0.3-0.7,0.7-1,1l-1.3-0.4C1665.2,126.5,1666,126.3,1666.8,125.9 M1199,190.3
	c4,4.3,8.7,9.2,16.7,9.7H1982c0.2-4.6-3.1-8.6-7.6-9.3c0-0.3,0-0.6-0.3-0.8c6.7-3.9,4.1-11.9-4.2-13c-3.5-0.6-7.1,0.1-10,2.1
	c2.5-3.8-4-8.2-9.3-9.5c7.1-0.2,7.6-7.1,3.6-10.7c4.5-0.3,7.9-4.2,7.6-8.7c-0.2-2.7-1.7-5.2-4.1-6.5c-4.6-2.7-11.6-1.8-17-0.9
	l-0.4-0.2c4.2-3.6,3.6-8.6-2.9-9.7c-5.2-1.3-9.6,2.1-13.5,4.3c0.6-5.6-5.8-8-12.2-5.7c4.4-2.6,2.5-6.9-2.7-8.6
	c-3.2-1-9.7,0.9-13.2,1.5c9.6-14.2-33.4-11.7-26.2,4.8c-4.2-0.6-8.4-0.3-12.4,1c-0.9-2.7-3.4-4.6-6.2-4.7c-0.4-0.2-0.9-0.4-1.3-0.5
	c4.9-10.9-14.9-7.5-20.1-3.6c3.8-6.7-8.9-4.7-12.4-2.1v0.9c-6.1-2.7-13.2-2.1-18.8,1.6c-5.6,4.2-4,8.8-3.8,14.2
	c-3.3-5.6-11-10.1-16.7-3.6c-1.3-5.2-6.5-7.5-13.2-6.1c-7.8,1.5-9,5-9.5,10.7c-6.3-1.9-14.6-1.9-18.7,2.8c7.1-7.3-4.4-14.2-9.4-8.4
	c1.8-5.9-11.8-6.7-17.1-2.6c-0.9-4.9-3.6-6.8-10.7-6.6c-4.5,0.3-10.1,1.3-11.6,5.3c1.1-6.6-12.9-7.1-19.8-2.2c1.8-2.1,0-5.8-2.8-7.3
	c-3.1-1.3-6.4-1.9-9.8-1.7c-5.6-0.3-20.4,2.6-16.9,9.3c-4.9,0-11.7,0.6-10.4,5.9c-5-0.9-10.2-0.8-15.1,0.3c5.9-7.1-11.2-5.3-15-4.4
	c-9.2,2.6-11.9,5.6-9,12c-6.8-1.5-12.1,0.9-13.4,6.1c-4.9-0.8-9.8,0.7-13.4,4.1c-7.1-7.1-15.8,1.9-14.5,7.9
	c-1.4,1.6-1.7,3.8-0.8,5.8c-2.4-3.1-7.1-2.9-11-1.4l-0.7-0.5c1-2.1-1.3-4.5-2.7-6.3c5.2-1,7.5-4,4.3-7.9c-3.8-3.8-8.3-2.3-13.2-1.8
	c0.5-6.2-8.1-5.9-13.5-5.9c8.8-4.2-5.5-9.5-10.7-9c-5.9,0.6-17.5,4.5-11.5,9.6c-8.5-4.1-16,0-22.5,4.2c-1.8-3.6-9.5-6.5-13.7-2.8
	c0-6.4-11.4-11.5-15.5-4.2c-3.8-2.6-8.7-3-12.8-0.9c-2.2,1.4-3.6,3.7-3.8,6.4c-5-1.2-10.1-1.2-15.1,0l-0.4-0.2
	c4.3-3.6,3.9-8.6-2.6-9.7c-5.2-1.3-9.6,2.1-13.6,4.3c0.8-5.6-5.5-8-12-5.7c4.5-2.6,2.8-6.9-2.4-8.6c-3.1-1-9.7,0.9-13.2,1.5
	c10.1-14.2-33.2-11.7-26.4,4.9c-4.2-0.5-8.5,0.4-12.2,2.6c-0.9-8.6-11.6-8.1-16.9-1.1c-8.8-6.5-20.5,1.5-19.3,9.4
	c-1.9-9.4-15.7-10.3-16.7-2.1c-5.8-7.3-12.2-8.5-16.1-3.8c-7.8-21.1-38.3-0.5-24.2,7.7c-15,1-8.2,9.7-8.2,9.7
	c-8.2-4.5-18.7,6.5-14.4,11.1c-10.7-3.7-21,5.8-14.5,14.2C1169.1,178.3,1185.8,202.4,1199,190.3"/>
<path id="Fill-18_1_" class="st1" d="M760.8,125.9c-0.4,0.3-0.7,0.7-1,1l-1.3-0.4C759.2,126.5,760,126.3,760.8,125.9 M293,190.3
	c4,4.3,8.7,9.2,16.7,9.7H1076c0.2-4.6-3.1-8.6-7.6-9.3c0-0.3,0-0.6-0.3-0.8c6.7-3.9,4.1-11.9-4.2-13c-3.5-0.6-7.1,0.1-10,2.1
	c2.5-3.8-4-8.2-9.3-9.5c7.1-0.2,7.6-7.1,3.6-10.7c4.5-0.3,7.9-4.2,7.6-8.7c-0.2-2.7-1.7-5.2-4.1-6.5c-4.6-2.7-11.6-1.8-17-0.9
	l-0.4-0.2c4.2-3.6,3.6-8.6-2.9-9.7c-5.2-1.3-9.6,2.1-13.5,4.3c0.6-5.6-5.8-8-12.2-5.7c4.4-2.6,2.5-6.9-2.7-8.6
	c-3.2-1-9.7,0.9-13.2,1.5c9.6-14.2-33.4-11.7-26.2,4.8c-4.2-0.6-8.4-0.3-12.4,1c-0.9-2.7-3.4-4.6-6.2-4.7c-0.4-0.2-0.9-0.4-1.3-0.5
	c4.9-10.9-14.9-7.5-20.1-3.6c3.8-6.7-8.9-4.7-12.4-2.1v0.9c-6.1-2.7-13.2-2.1-18.8,1.6c-5.6,4.2-4,8.8-3.8,14.2
	c-3.3-5.6-11-10.1-16.7-3.6c-1.3-5.2-6.5-7.5-13.2-6.1c-7.8,1.5-9,5-9.5,10.7c-6.3-1.9-14.6-1.9-18.7,2.8c7.1-7.3-4.4-14.2-9.4-8.4
	c1.8-5.9-11.8-6.7-17.1-2.6c-0.9-4.9-3.6-6.8-10.7-6.6c-4.5,0.3-10.1,1.3-11.6,5.3c1.1-6.6-12.9-7.1-19.8-2.2c1.8-2.1,0-5.8-2.8-7.3
	c-3.1-1.3-6.4-1.9-9.8-1.7c-5.6-0.3-20.4,2.6-16.9,9.3c-4.9,0-11.7,0.6-10.4,5.9c-5-0.9-10.2-0.8-15.1,0.3c5.9-7.1-11.2-5.3-15-4.4
	c-9.2,2.6-11.9,5.6-9,12c-6.8-1.5-12.1,0.9-13.4,6.1c-4.9-0.8-9.8,0.7-13.4,4.1c-7.1-7.1-15.8,1.9-14.5,7.9
	c-1.4,1.6-1.7,3.8-0.8,5.8c-2.4-3.1-7.1-2.9-11-1.4l-0.7-0.5c1-2.1-1.3-4.5-2.7-6.3c5.2-1,7.5-4,4.3-7.9c-3.8-3.8-8.3-2.3-13.2-1.8
	c0.5-6.2-8.1-5.9-13.5-5.9c8.8-4.2-5.5-9.5-10.7-9c-5.9,0.6-17.5,4.5-11.5,9.6c-8.5-4.1-16,0-22.5,4.2c-1.8-3.6-9.5-6.5-13.7-2.8
	c0-6.4-11.4-11.5-15.5-4.2c-3.8-2.6-8.7-3-12.8-0.9c-2.2,1.4-3.6,3.7-3.8,6.4c-5-1.2-10.1-1.2-15.1,0l-0.4-0.2
	c4.3-3.6,3.9-8.6-2.6-9.7c-5.2-1.3-9.6,2.1-13.6,4.3c0.8-5.6-5.5-8-12-5.7c4.5-2.6,2.8-6.9-2.4-8.6c-3.1-1-9.7,0.9-13.2,1.5
	c10.1-14.2-33.2-11.7-26.4,4.9c-4.2-0.5-8.5,0.4-12.2,2.6c-0.9-8.6-11.6-8.1-16.9-1.1c-8.8-6.5-20.5,1.5-19.3,9.4
	c-1.9-9.4-15.7-10.3-16.7-2.1c-5.8-7.3-12.2-8.5-16.1-3.8c-7.8-21.1-38.3-0.5-24.2,7.7c-15,1-8.2,9.7-8.2,9.7
	c-8.2-4.5-18.7,6.5-14.4,11.1c-10.7-3.7-21,5.8-14.5,14.2C263.1,178.3,279.8,202.4,293,190.3"/>
<path id="Fill-18_2_" class="st1" d="M458.8,128.9c-0.4,0.3-0.7,0.7-1,1l-1.3-0.4C457.2,129.5,458,129.3,458.8,128.9 M-9,193.3
	c4,4.3,8.7,9.2,16.7,9.7H774c0.2-4.6-3.1-8.6-7.6-9.3c0-0.3,0-0.6-0.3-0.8c6.7-3.9,4.1-11.9-4.2-13c-3.5-0.6-7.1,0.1-10,2.1
	c2.5-3.8-4-8.2-9.3-9.5c7.1-0.2,7.6-7.1,3.6-10.7c4.5-0.3,7.9-4.2,7.6-8.7c-0.2-2.7-1.7-5.2-4.1-6.5c-4.6-2.7-11.6-1.8-17-0.9
	l-0.4-0.2c4.2-3.6,3.6-8.6-2.9-9.7c-5.2-1.3-9.6,2.1-13.5,4.3c0.6-5.6-5.8-8-12.2-5.7c4.4-2.6,2.5-6.9-2.7-8.6
	c-3.2-1-9.7,0.9-13.2,1.5c9.6-14.2-33.4-11.7-26.2,4.8c-4.2-0.6-8.4-0.3-12.4,1c-0.9-2.7-3.4-4.6-6.2-4.7c-0.4-0.2-0.9-0.4-1.3-0.5
	c4.9-10.9-14.9-7.5-20.1-3.6c3.8-6.7-8.9-4.7-12.4-2.1v0.9c-6.1-2.7-13.2-2.1-18.8,1.6c-5.6,4.2-4,8.8-3.8,14.2
	c-3.3-5.6-11-10.1-16.7-3.6c-1.3-5.2-6.5-7.5-13.2-6.1c-7.8,1.5-9,5-9.5,10.7c-6.3-1.9-14.6-1.9-18.7,2.8c7.1-7.3-4.4-14.2-9.4-8.4
	c1.8-5.9-11.8-6.7-17.1-2.6c-0.9-4.9-3.6-6.8-10.7-6.6c-4.5,0.3-10.1,1.3-11.6,5.3c1.1-6.6-12.9-7.1-19.8-2.2c1.8-2.1,0-5.8-2.8-7.3
	c-3.1-1.3-6.4-1.9-9.8-1.7c-5.6-0.3-20.4,2.6-16.9,9.3c-4.9,0-11.7,0.6-10.4,5.9c-5-0.9-10.2-0.8-15.1,0.3c5.9-7.1-11.2-5.3-15-4.4
	c-9.2,2.6-11.9,5.6-9,12c-6.8-1.5-12.1,0.9-13.4,6.1c-4.9-0.8-9.8,0.7-13.4,4.1c-7.1-7.1-15.8,1.9-14.5,7.9
	c-1.4,1.6-1.7,3.8-0.8,5.8c-2.4-3.1-7.1-2.9-11-1.4l-0.7-0.5c1-2.1-1.3-4.5-2.7-6.3c5.2-1,7.5-4,4.3-7.9c-3.8-3.8-8.3-2.3-13.2-1.8
	c0.5-6.2-8.1-5.9-13.5-5.9c8.8-4.2-5.5-9.5-10.7-9c-5.9,0.6-17.5,4.5-11.5,9.6c-8.5-4.1-16,0-22.5,4.2c-1.8-3.6-9.5-6.5-13.7-2.8
	c0-6.4-11.4-11.5-15.5-4.2c-3.8-2.6-8.7-3-12.8-0.9c-2.2,1.4-3.6,3.7-3.8,6.4c-5-1.2-10.1-1.2-15.1,0l-0.4-0.2
	c4.3-3.6,3.9-8.6-2.6-9.7c-5.2-1.3-9.6,2.1-13.6,4.3c0.8-5.6-5.5-8-12-5.7c4.5-2.6,2.8-6.9-2.4-8.6c-3.1-1-9.7,0.9-13.2,1.5
	c10.1-14.2-33.2-11.7-26.4,4.9c-4.2-0.5-8.5,0.4-12.2,2.6c-0.9-8.6-11.6-8.1-16.9-1.1c-8.8-6.5-20.5,1.5-19.3,9.4
	c-1.9-9.4-15.7-10.3-16.7-2.1c-5.8-7.3-12.2-8.5-16.1-3.8c-7.8-21.1-38.3-0.5-24.2,7.7c-15,1-8.2,9.7-8.2,9.7
	c-8.2-4.5-18.7,6.5-14.4,11.1c-10.7-3.7-21,5.8-14.5,14.2C-38.9,181.3-22.2,205.4-9,193.3"/>
<path id="Fill-18_3_" class="st1" d="M1366.8,128.9c-0.4,0.3-0.7,0.7-1,1l-1.3-0.4C1365.2,129.5,1366,129.3,1366.8,128.9 M899,193.3
	c4,4.3,8.7,9.2,16.7,9.7H1682c0.2-4.6-3.1-8.6-7.6-9.3c0-0.3,0-0.6-0.3-0.8c6.7-3.9,4.1-11.9-4.2-13c-3.5-0.6-7.1,0.1-10,2.1
	c2.5-3.8-4-8.2-9.3-9.5c7.1-0.2,7.6-7.1,3.6-10.7c4.5-0.3,7.9-4.2,7.6-8.7c-0.2-2.7-1.7-5.2-4.1-6.5c-4.6-2.7-11.6-1.8-17-0.9
	l-0.4-0.2c4.2-3.6,3.6-8.6-2.9-9.7c-5.2-1.3-9.6,2.1-13.5,4.3c0.6-5.6-5.8-8-12.2-5.7c4.4-2.6,2.5-6.9-2.7-8.6
	c-3.2-1-9.7,0.9-13.2,1.5c9.6-14.2-33.4-11.7-26.2,4.8c-4.2-0.6-8.4-0.3-12.4,1c-0.9-2.7-3.4-4.6-6.2-4.7c-0.4-0.2-0.9-0.4-1.3-0.5
	c4.9-10.9-14.9-7.5-20.1-3.6c3.8-6.7-8.9-4.7-12.4-2.1v0.9c-6.1-2.7-13.2-2.1-18.8,1.6c-5.6,4.2-4,8.8-3.8,14.2
	c-3.3-5.6-11-10.1-16.7-3.6c-1.3-5.2-6.5-7.5-13.2-6.1c-7.8,1.5-9,5-9.5,10.7c-6.3-1.9-14.6-1.9-18.7,2.8c7.1-7.3-4.4-14.2-9.4-8.4
	c1.8-5.9-11.8-6.7-17.1-2.6c-0.9-4.9-3.6-6.8-10.7-6.6c-4.5,0.3-10.1,1.3-11.6,5.3c1.1-6.6-12.9-7.1-19.8-2.2c1.8-2.1,0-5.8-2.8-7.3
	c-3.1-1.3-6.4-1.9-9.8-1.7c-5.6-0.3-20.4,2.6-16.9,9.3c-4.9,0-11.7,0.6-10.4,5.9c-5-0.9-10.2-0.8-15.1,0.3c5.9-7.1-11.2-5.3-15-4.4
	c-9.2,2.6-11.9,5.6-9,12c-6.8-1.5-12.1,0.9-13.4,6.1c-4.9-0.8-9.8,0.7-13.4,4.1c-7.1-7.1-15.8,1.9-14.5,7.9
	c-1.4,1.6-1.7,3.8-0.8,5.8c-2.4-3.1-7.1-2.9-11-1.4l-0.7-0.5c1-2.1-1.3-4.5-2.7-6.3c5.2-1,7.5-4,4.3-7.9c-3.8-3.8-8.3-2.3-13.2-1.8
	c0.5-6.2-8.1-5.9-13.5-5.9c8.8-4.2-5.5-9.5-10.7-9c-5.9,0.6-17.5,4.5-11.5,9.6c-8.5-4.1-16,0-22.5,4.2c-1.8-3.6-9.5-6.5-13.7-2.8
	c0-6.4-11.4-11.5-15.5-4.2c-3.8-2.6-8.7-3-12.8-0.9c-2.2,1.4-3.6,3.7-3.8,6.4c-5-1.2-10.1-1.2-15.1,0l-0.4-0.2
	c4.3-3.6,3.9-8.6-2.6-9.7c-5.2-1.3-9.6,2.1-13.6,4.3c0.8-5.6-5.5-8-12-5.7c4.5-2.6,2.8-6.9-2.4-8.6c-3.1-1-9.7,0.9-13.2,1.5
	c10.1-14.2-33.2-11.7-26.4,4.9c-4.2-0.5-8.5,0.4-12.2,2.6c-0.9-8.6-11.6-8.1-16.9-1.1c-8.8-6.5-20.5,1.5-19.3,9.4
	c-1.9-9.4-15.7-10.3-16.7-2.1c-5.8-7.3-12.2-8.5-16.1-3.8c-7.8-21.1-38.3-0.5-24.2,7.7c-15,1-8.2,9.7-8.2,9.7
	c-8.2-4.5-18.7,6.5-14.4,11.1c-10.7-3.7-21,5.8-14.5,14.2C869.1,181.3,885.8,205.4,899,193.3"/>
<polygon id="Fill-113" class="st2" points="917.8,163.4 868.9,155 869.2,152.9 918.2,161.3 "/>
<path id="Fill-114" class="st2" d="M798.6,151.6l-1,2.5v5.6h12.7c0,0,2.7-6.5,12.9-6.5c5.8,0,9.6,1,13.6,3.8l49.3,0.1H939v-3.6h24.2
	l-6-1.9l-8.9-4.4l-96.5,0.2l-18-2.3l0.2-12.8l-24,12.3L798.6,151.6z"/>
<path id="Fill-115" class="st3" d="M929.1,162.2c0,0,0.1,0,0.1,0v-0.5c0,0-0.1,0-0.1,0l0,0l0,0l0,0c0,0,0.1,0,0.1-0.1v-0.5
	c0,0-0.1,0-0.1,0l0,0l0,0l0,0c0,0,0.1,0,0.1-0.1l0-0.5c0,0-0.1,0-0.1,0l0,0l0,0l0,0c0,0,0.1,0,0.1-0.1l-0.1-0.5c0,0-0.1,0-0.1,0l0,0
	l0,0l0,0c0,0,0.1,0,0.1-0.1l-0.1-0.5c0,0-0.1,0-0.1,0l0,0l0,0l0,0c0,0,0.1,0,0.1-0.1l-0.1-0.5c0,0-0.1,0-0.1,0l0,0l0,0l0,0
	c0,0,0.1,0,0.1-0.1l-0.1-0.5c0,0-0.1,0-0.1,0l0,0l0,0l0,0c0,0,0.1,0,0.1-0.1l-0.2-0.4c0,0-0.1,0-0.1,0l0,0l0,0l0,0
	c0,0,0.1,0,0.1-0.1l-0.2-0.4c0,0-0.1,0-0.1,0l0,0l0,0l0,0c0,0,0.1-0.1,0.1-0.1l-0.2-0.4c0,0-0.1,0-0.1,0l0,0l0,0l0,0
	c0,0,0.1-0.1,0.1-0.1l-0.2-0.4c0,0-0.1,0-0.1,0l0,0l0,0l0,0c0,0,0.1-0.1,0.1-0.1l-0.3-0.4c0,0-0.1,0-0.1,0l0,0l0,0l0,0
	c0,0,0.1-0.1,0.1-0.1l-0.3-0.4c0,0-0.1,0-0.1,0l0,0l0,0l0,0c0,0,0.1-0.1,0.1-0.1l-0.3-0.4c0,0-0.1,0-0.1,0l0,0l0,0l0,0
	c0,0,0.1-0.1,0-0.1l-0.3-0.4c0,0-0.1,0-0.1,0l0,0l0,0l0,0c0,0,0-0.1,0-0.1l-0.6-1c0,0-0.1,0-0.1,0l0,0l0,0l0,0c0,0,0-0.1,0-0.1
	l-0.4-0.3c0,0-0.1,0-0.1,0.1l0,0l0,0l0,0c0,0,0-0.1,0-0.1l-0.4-0.3c0,0-0.1,0-0.1,0.1l0,0l0,0l0,0c0,0,0-0.1,0-0.1L924,152
	c0,0-0.1,0-0.1,0.1l0,0l0,0l0,0c0,0,0-0.1,0-0.1l-0.4-0.3c0,0-0.1,0-0.1,0.1l0,0l0,0l0,0c0,0,0-0.1,0-0.1l-0.4-0.2
	c0,0-0.1,0-0.1,0.1l0,0l0,0l0,0c0,0,0-0.1,0-0.1l-0.4-0.2c0,0-0.1,0-0.1,0.1l0,0l0,0l0,0c0,0,0-0.1,0-0.1l-0.4-0.2
	c0,0-0.1,0-0.1,0.1l0,0l0,0l0,0c0,0,0-0.1,0-0.1l-0.5-0.2c0,0-0.1,0-0.1,0.1l0,0l0,0l0,0c0,0,0-0.1,0-0.1l-0.5-0.1
	c0,0-0.1,0.1-0.1,0.1l0,0l0,0l0,0c0,0,0-0.1,0-0.1l-0.5-0.1c0,0-0.1,0.1-0.1,0.1l0,0l0,0l0,0c0,0,0-0.1,0-0.1l-0.5-0.1
	c0,0-0.1,0.1-0.1,0.1l0,0l0,0l0,0c0,0,0-0.1,0-0.1l-0.5-0.1c0,0-0.1,0.1-0.1,0.1l0,0l0,0l0,0c0,0,0-0.1,0-0.1l-0.5-0.1
	c0,0-0.1,0.1-0.1,0.1l0,0l0,0l0,0c0,0,0-0.1,0-0.1h-0.5c0,0-0.1,0.1-0.1,0.1l0,0l0,0l0,0c0,0,0-0.1,0-0.1h-0.5c0,0-0.1,0.1-0.1,0.1
	l0,0l0,0l0,0c0,0,0-0.1-0.1-0.1H917c0,0,0,0.1,0,0.1l0,0l0,0l0,0c0,0,0-0.1-0.1-0.1l-0.5,0.1c0,0,0,0.1,0,0.1l0,0l0,0l0,0
	c0,0,0-0.1-0.1-0.1l-0.5,0.1c0,0,0,0.1,0,0.1l0,0l0,0l0,0c0,0,0-0.1-0.1-0.1l-0.5,0.1c0,0,0,0.1,0,0.1l0,0l0,0l0,0
	c0,0,0-0.1-0.1-0.1l-0.5,0.1c0,0,0,0.1,0,0.1l0,0l0,0l0,0c0,0,0-0.1-0.1-0.1l-0.5,0.1c0,0,0,0.1,0,0.1l0,0l0,0l0,0
	c0,0,0-0.1-0.1-0.1l-0.4,0.2c0,0,0,0.1,0,0.1l0,0l0,0l0,0c0,0,0-0.1-0.1-0.1l-0.4,0.2c0,0,0,0.1,0,0.1l0,0l0,0l0,0
	c0,0-0.1-0.1-0.1-0.1l-0.4,0.2c0,0,0,0.1,0,0.1l0,0l0,0l0,0c0,0-0.1-0.1-0.1-0.1l-0.4,0.2c0,0,0,0.1,0,0.1l0,0l0,0l0,0
	c0,0-0.1-0.1-0.1-0.1l-0.4,0.3c0,0,0,0.1,0,0.1l0,0l0,0l0,0c0,0-0.1-0.1-0.1-0.1l-0.4,0.3c0,0,0,0.1,0,0.1l0,0l0,0l0,0
	c0,0-0.1-0.1-0.1-0.1l-0.4,0.3c0,0,0,0.1,0,0.1l0,0l0,0l0,0c0,0-0.1-0.1-0.1-0.1l-0.4,0.3c0,0,0,0.1,0,0.1l0,0l0,0l0,0
	c0,0-0.1,0-0.1,0l-0.3,0.3c0,0,0,0.1,0,0.1l0,0l0,0l0,0c0,0-0.1,0-0.1,0l-0.3,0.4c0,0,0,0.1,0,0.1l0,0l0,0l0,0c0,0-0.1,0-0.1,0
	l-0.3,0.4c0,0,0,0.1,0.1,0.1l0,0l0,0l0,0c0,0-0.1,0-0.1,0l-0.3,0.4c0,0,0,0.1,0.1,0.1l0,0l0,0l0,0c0,0-0.1,0-0.1,0l-0.3,0.4
	c0,0,0,0.1,0.1,0.1l0,0l0,0l0,0c0,0-0.1,0-0.1,0l-0.2,0.4c0,0,0,0.1,0.1,0.1l0,0l0,0l0,0c0,0-0.1,0-0.1,0l-0.2,0.4
	c0,0,0,0.1,0.1,0.1l0,0l0,0l0,0c0,0-0.1,0-0.1,0l-0.2,0.4c0,0,0,0.1,0.1,0.1l0,0l0,0l0,0c0,0-0.1,0-0.1,0l-0.2,0.4
	c0,0,0,0.1,0.1,0.1l0,0l0,0l0,0c0,0-0.1,0-0.1,0l-0.2,0.5c0,0,0.1,0.1,0.1,0.1l0,0l0,0l0,0c0,0-0.1,0-0.1,0l-0.1,0.5
	c0,0,0.1,0.1,0.1,0.1l0,0l0,0l0,0c0,0-0.1,0-0.1,0l-0.1,0.5c0,0,0.1,0.1,0.1,0.1l0,0l0,0l0,0c0,0-0.1,0-0.1,0l-0.1,0.5
	c0,0,0.1,0.1,0.1,0.1l0,0l0,0l0,0c0,0-0.1,0-0.1,0v0.5c0,0,0.1,0.1,0.1,0.1l0,0l0,0l0,0c0,0-0.1,0-0.1,0v0.5c0,0,0.1,0.1,0.1,0.1
	l0,0l0,0l0,0c0,0-0.1,0-0.1,0v0.5c0,0,0.1,0,0.1,0l0,0l0,0l0,0c0,0-0.1,0-0.1,0.1v0.5c0,0,0.1,0,0.1,0l0,0l0,0l0,0
	c0,0-0.1,0-0.1,0.1l0.1,0.5c0,0,0.1,0,0.1,0l0,0l0,0l0,0c0,0-0.1,0-0.1,0.1l0.1,0.5c0,0,0.1,0,0.1,0l0,0l0,0l0,0c0,0-0.1,0-0.1,0.1
	l0.1,0.5c0,0,0.1,0,0.1,0l0,0l0,0l0,0c0,0-0.1,0-0.1,0.1l0.1,0.5c0,0,0.1,0,0.1,0l0,0l0,0l0,0c0,0-0.1,0-0.1,0.1l0.2,0.5
	c0,0,0.1,0,0.1,0l0,0l0,0l0,0c0,0-0.1,0-0.1,0.1l0.2,0.4c0,0,0.1,0,0.1,0l0,0l0,0l0,0c0,0-0.1,0-0.1,0.1l0.2,0.4c0,0,0.1,0,0.1,0
	l0,0l0,0l0,0c0,0-0.1,0.1-0.1,0.1l0.2,0.4c0,0,0.1,0,0.1,0l0,0l0,0l0,0c0,0-0.1,0.1-0.1,0.1l0.2,0.4c0,0,0.1,0,0.1,0l0,0l0,0l0,0
	c0,0-0.1,0.1-0.1,0.1l0.3,0.4c0,0,0.1,0,0.1,0l0,0l0,0l0,0c0,0-0.1,0.1-0.1,0.1l0.3,0.4c0,0,0.1,0,0.1,0l0,0l0,0l0,0
	c0,0-0.1,0.1-0.1,0.1l0.3,0.4c0,0,0.1,0,0.1,0l0,0l0,0l0,0c0,0-0.1,0.1-0.1,0.1l0.3,0.4c0,0,0.1,0,0.1,0l0,0l0,0l0,0
	c0,0,0,0.1,0,0.1l0.3,0.3c0,0,0.1,0,0.1,0l0,0l0,0l0,0c0,0,0,0.1,0,0.1l0.4,0.3c0,0,0.1,0,0.1-0.1l0,0l0,0l0,0c0,0,0,0.1,0,0.1
	l0.4,0.3c0,0,0.1,0,0.1-0.1l0,0l0,0l0,0c0,0,0,0.1,0,0.1l0.4,0.3c0,0,0.1,0,0.1-0.1l0,0l0,0l0,0c0,0,0,0.1,0,0.1l0.4,0.3
	c0,0,0.1,0,0.1-0.1l0,0l0,0l0,0c0,0,0,0.1,0,0.1l0.4,0.2c0,0,0.1,0,0.1-0.1l0,0l0,0l0,0c0,0,0,0.1,0,0.1l0.4,0.2c0,0,0.1,0,0.1-0.1
	l0,0l0,0l0,0c0,0,0,0.1,0,0.1l0.4,0.2c0,0,0.1,0,0.1-0.1l0,0l0,0l0,0c0,0,0,0.1,0,0.1l0.5,0.2c0,0,0.1,0,0.1-0.1l0,0l0,0l0,0
	c0,0,0,0.1,0,0.1l0.5,0.1c0,0,0.1-0.1,0.1-0.1l0,0l0,0l0,0c0,0,0,0.1,0,0.1l0.5,0.1c0,0,0.1-0.1,0.1-0.1l0,0l0,0l0,0
	c0,0,0,0.1,0,0.1l0.5,0.1c0,0,0.1-0.1,0.1-0.1l0,0l0,0l0,0c0,0,0,0.1,0,0.1l0.5,0.1c0,0,0.1-0.1,0.1-0.1l0,0l0,0l0,0
	c0,0,0,0.1,0,0.1h0.5c0,0,0.1-0.1,0.1-0.1l0,0l0,0l0,0c0,0,0,0.1,0,0.1h0.5c0,0,0.1-0.1,0-0.1l0,0l0,0l0,0c0,0,0,0.1,0,0.1h0
	c0,0,0-0.1,0-0.1l0,0l0,0l0,0c0,0,0,0.1,0.1,0.1h0.5c0,0,0-0.1,0-0.1l0,0l0,0l0,0c0,0,0,0.1,0.1,0.1l0.5-0.1c0,0,0-0.1,0-0.1l0,0
	l0,0l0,0c0,0,0,0.1,0.1,0.1l0.5-0.1c0,0,0-0.1,0-0.1l0,0l0,0l0,0c0,0,0,0.1,0.1,0.1l0.5-0.1c0,0,0-0.1,0-0.1l0,0l0,0l0,0
	c0,0,0,0.1,0.1,0.1l0.5-0.1c0,0,0-0.1,0-0.1l0,0l0,0l0,0c0,0,0,0.1,0.1,0.1l0.5-0.1c0,0,0-0.1,0-0.1l0,0l0,0l0,0c0,0,0,0.1,0.1,0.1
	l0.5-0.2c0,0,0-0.1,0-0.1l0,0l0,0l0,0c0,0,0,0.1,0.1,0.1l0.4-0.2c0,0,0-0.1,0-0.1l0,0l0,0l0,0c0,0,0.1,0.1,0.1,0.1l0.4-0.2
	c0,0,0-0.1,0-0.1l0,0l0,0l0,0c0,0,0.1,0.1,0.1,0.1l0.4-0.2c0,0,0-0.1,0-0.1l0,0l0,0l0,0c0,0,0.1,0.1,0.1,0.1l0.4-0.3
	c0,0,0-0.1,0-0.1l0,0l0,0l0,0c0,0,0.1,0.1,0.1,0.1l0.4-0.3c0,0,0-0.1,0-0.1l0,0l0,0l0,0c0,0,0.1,0.1,0.1,0.1l0.4-0.3
	c0,0,0-0.1,0-0.1l0,0l0,0l0,0c0,0,0.1,0.1,0.1,0.1l0.4-0.3c0,0,0-0.1,0-0.1l0,0l0,0l0,0c0,0,0.1,0,0.1,0l0.3-0.3c0,0,0-0.1,0-0.1
	l0,0l0,0l0,0c0,0,0.1,0,0.1,0l0.3-0.4c0,0,0-0.1-0.1-0.1l0,0l0,0l0,0c0,0,0.1,0,0.1,0l0.3-0.4c0,0,0-0.1-0.1-0.1l0,0l0,0l0,0
	c0,0,0.1,0,0.1,0l0.3-0.4c0,0,0-0.1-0.1-0.1l0,0l0,0l0,0c0,0,0.1,0,0.1,0l0.3-0.4c0,0,0-0.1-0.1-0.1l0,0l0,0l0,0c0,0,0.1,0,0.1,0
	l0.2-0.4c0,0,0-0.1-0.1-0.1l0,0l0,0l0,0c0,0,0.1,0,0.1,0l0.2-0.4c0,0,0-0.1-0.1-0.1l0,0l0,0l0,0c0,0,0.1,0,0.1,0l0.2-0.4
	c0,0,0-0.1-0.1-0.1l0,0l0,0l0,0c0,0,0.1,0,0.1,0l0.2-0.4c0,0,0-0.1-0.1-0.1l0,0l0,0l0,0c0,0,0.1,0,0.1,0l0.1-0.5
	c0,0-0.1-0.1-0.1-0.1l0,0l0,0l0,0c0,0,0.1,0,0.1,0l0.1-0.5c0,0-0.1-0.1-0.1-0.1l0,0l0,0l0,0c0,0,0.1,0,0.1,0l0.1-0.5
	c0,0-0.1-0.1-0.1-0.1l0,0l0,0l0,0c0,0,0.1,0,0.1,0l0.1-0.5c0,0-0.1-0.1-0.1-0.1l0,0l0,0l0,0c0,0,0.1,0,0.1,0l0-0.5
	c0,0-0.1-0.1-0.1-0.1l0,0l0,0l0,0c0,0,0.1,0,0.1,0v-0.5c0,0-0.1-0.1-0.1-0.1l0,0l0,0l0,0"/>
<path id="Fill-116" class="st4" d="M917.2,154.6c-4,0-7.3,3.2-7.3,7.2c0,4,3.2,7.3,7.2,7.3c4,0,7.3-3.2,7.3-7.2c0,0,0,0,0,0
	C924.5,157.8,921.2,154.6,917.2,154.6C917.2,154.6,917.2,154.6,917.2,154.6"/>
<path id="Fill-117" class="st3" d="M917.1,158.3c0.5,0,0.9-0.4,0.9-0.9c0,0,0,0,0-0.1c-0.1-0.5-0.5-0.9-1-0.8
	c-0.4,0-0.8,0.4-0.8,0.8c0,0,0,0,0,0.1C916.2,157.9,916.6,158.3,917.1,158.3"/>
<path id="Fill-118" class="st3" d="M914.6,159.4c0.4-0.4,0.4-0.9,0-1.3c-0.4-0.4-0.9-0.4-1.3,0c-0.4,0.4-0.4,0.9,0,1.3c0,0,0,0,0,0
	C913.7,159.7,914.3,159.7,914.6,159.4"/>
<path id="Fill-119" class="st3" d="M913.7,161.9C913.7,161.9,913.7,161.9,913.7,161.9c-0.1-0.6-0.5-0.9-1-0.9
	c-0.4,0-0.8,0.4-0.8,0.8c0,0,0,0,0,0.1c0,0.5,0.4,0.9,0.9,0.9C913.3,162.9,913.7,162.4,913.7,161.9
	C913.7,161.9,913.7,161.9,913.7,161.9"/>
<path id="Fill-120" class="st3" d="M922.6,161.6c-0.1-0.5-0.5-0.9-1-0.8c-0.4,0-0.8,0.4-0.8,0.8c0,0,0,0,0,0.1
	c0,0.5,0.4,0.9,0.9,0.9C922.2,162.6,922.6,162.2,922.6,161.6C922.6,161.7,922.6,161.7,922.6,161.6
	C922.6,161.7,922.6,161.7,922.6,161.6"/>
<path id="Fill-121" class="st3" d="M921,159.2c0.4-0.4,0.4-0.9,0-1.3c-0.4-0.4-0.9-0.4-1.3,0c-0.4,0.4-0.4,0.9,0,1.3c0,0,0,0,0,0
	C920,159.6,920.6,159.6,921,159.2"/>
<path id="Fill-122" class="st3" d="M914.8,164.4c-0.4-0.4-1-0.4-1.3,0c-0.4,0.4-0.4,1,0,1.3s1,0.4,1.3,0c0.2-0.2,0.3-0.5,0.3-0.7
	C915,164.8,914.9,164.6,914.8,164.4"/>
<path id="Fill-123" class="st3" d="M917.3,165.4c-0.5,0-0.9,0.4-0.9,0.9c0,0,0,0,0,0.1c0,0.5,0.4,0.9,0.9,0.9c0.5,0,0.9-0.4,0.9-0.9
	c0,0,0,0,0,0c0,0,0,0,0-0.1C918.2,165.7,917.8,165.4,917.3,165.4"/>
<path id="Fill-124" class="st3" d="M921.1,164.3c-0.4-0.4-1-0.4-1.3,0s-0.4,1,0,1.3s1,0.4,1.3,0c0.2-0.2,0.3-0.5,0.3-0.7
	C921.4,164.6,921.3,164.4,921.1,164.3"/>
<path id="Fill-125" class="st3" d="M917.2,159.3c-1.4,0-2.5,1.1-2.5,2.5c0,1.4,1.1,2.5,2.5,2.5c1.4,0,2.5-1.1,2.5-2.5c0,0,0,0,0,0
	C919.7,160.4,918.6,159.3,917.2,159.3C917.2,159.3,917.2,159.3,917.2,159.3"/>
<path id="Fill-126" class="st4" d="M824,154.4c-4.1,0-7.4,3.3-7.4,7.4c0,4.1,3.3,7.4,7.4,7.4c4.1,0,7.4-3.3,7.4-7.4c0,0,0,0,0,0
	C831.4,157.8,828.1,154.4,824,154.4C824,154.4,824,154.4,824,154.4"/>
<path id="Fill-127" class="st3" d="M824,169.2c-4.1,0-7.4-3.3-7.4-7.3c0-4.1,3.3-7.4,7.3-7.4c4.1,0,7.4,3.3,7.4,7.3c0,0,0,0,0,0
	C831.4,165.9,828.1,169.2,824,169.2C824,169.2,824,169.2,824,169.2 M835.9,162.2c0,0,0.1,0,0.1,0v-0.5c0,0-0.1-0.1-0.1,0l0,0l0,0
	l0,0c0,0,0.1,0,0.1-0.1v-0.5c0,0-0.1,0-0.1,0l0,0l0,0l0,0c0,0,0.1,0,0.1-0.1v-0.5c0,0-0.1,0-0.1,0l0,0l0,0l0,0
	c0.1,0,0.2-0.1,0.2-0.2c0-0.1-0.1-0.2-0.2-0.2l-0.1-0.5c0,0-0.1,0-0.1,0l0,0l0,0l0,0c0,0,0.1,0,0.1-0.1l-0.1-0.4c0,0-0.1,0-0.1,0
	l0,0l0,0l0,0c0,0,0.1,0,0.1-0.1l-0.2-0.6c0,0-0.1,0-0.1,0l0,0l0,0l0,0c0,0,0.1,0,0.1-0.1l-0.1-0.5c0,0-0.1,0-0.1,0l0,0l0,0l0,0
	c0,0,0.1,0,0.1-0.1l-0.2-0.4c0,0-0.1,0-0.1,0l0,0l0,0l0,0c0,0,0.1,0,0.1-0.1l-0.2-0.4c0,0-0.1,0-0.1,0l0,0l0,0l0,0
	c0,0,0.1-0.1,0.1-0.1l-0.2-0.6c0,0-0.1,0-0.1,0l0,0l0,0l0,0c0,0,0.1-0.1,0.1-0.1l-0.2-0.4c0,0-0.1,0-0.1,0l0,0l0,0l0,0
	c0,0,0.1-0.1,0.1-0.1l-0.3-0.4c0,0-0.1,0-0.1,0l0,0l0,0l0,0c0,0,0.1-0.1,0.1-0.1l-0.3-0.4c0,0-0.1,0-0.1,0l0,0l0,0l0,0
	c0,0,0.1-0.1,0.1-0.1l-0.3-0.4c0,0-0.1,0-0.1,0l0,0l0,0l0,0c0,0,0.1-0.1,0.1-0.1l-0.3-0.4c0,0-0.1,0-0.1,0l0,0l0,0l0,0
	c0,0,0-0.1,0-0.1l-0.4-0.4c0,0-0.1,0-0.1,0l0,0l0,0l0,0c0,0,0-0.1,0-0.1l-0.4-0.3c0,0-0.1,0-0.1,0.1l0,0l0,0l0,0c0,0,0-0.1,0-0.1
	l-0.4-0.3c0,0-0.1,0-0.1,0.1l0,0l0,0l0,0c0,0,0-0.1,0-0.1l-0.4-0.3c0,0-0.1,0-0.1,0.1l0,0l0,0l0,0c0,0,0-0.1,0-0.1l-0.4-0.3
	c0,0-0.1,0-0.1,0.1l0,0l0,0l0,0c0,0,0-0.1,0-0.1l-0.4-0.2c0,0-0.1,0-0.1,0.1l0,0l0,0l0,0c0,0,0-0.1,0-0.1l-0.4-0.2
	c0,0-0.1,0-0.1,0.1l0,0l0,0l0,0c0,0,0-0.1,0-0.1l-0.4-0.2c0,0-0.1,0-0.1,0.1l0,0l0,0l0,0c0,0,0-0.1,0-0.1l-0.5-0.2
	c0,0-0.1,0-0.1,0.1l0,0l0,0l0,0c0,0,0-0.1,0-0.1l-0.7-0.3c0,0-0.1,0.1-0.1,0.1l0,0l0,0l0,0c0,0,0-0.1,0-0.1l-0.5-0.2
	c0,0-0.1,0.1-0.1,0.1l0,0l0,0l0,0c0,0,0-0.1,0-0.1l-0.5-0.1c0,0-0.1,0.1-0.1,0.1l0,0l0,0l0,0c0,0,0-0.1,0-0.1l-0.5-0.1
	c0,0-0.1,0.1-0.1,0.1l0,0l0,0l0,0c0,0,0-0.1,0-0.1l-0.5-0.1c0,0-0.1,0.1-0.1,0.1l0,0l0,0l0,0c0,0,0-0.1,0-0.1h-0.5
	c0,0-0.1,0.1-0.1,0.1l0,0l0,0l0,0c0,0,0-0.1,0-0.1h-0.9c0,0,0,0.1,0,0.1l0,0l0,0l0,0c0,0,0-0.1-0.1-0.1h-0.5c0,0,0,0.1,0,0.1l0,0
	l0,0l0,0c0,0,0-0.1-0.1-0.1h-0.5c0,0,0,0.1,0,0.1l0,0l0,0l0,0c0,0,0-0.1-0.1-0.1l-0.5,0.1c0,0,0,0.1,0,0.1l0,0l0,0l0,0
	c0,0,0-0.1-0.1-0.1l-0.5,0.1c0,0,0,0.1,0,0.1l0,0l0,0l0,0c0,0,0-0.1-0.1-0.1l-0.5,0.1c0,0,0,0.1,0,0.1l0,0l0,0l0,0
	c0,0,0-0.1-0.1-0.1l-0.5,0.1c0,0,0,0.1,0,0.1l0,0l0,0l0,0c0,0,0-0.1-0.1-0.1l-0.5,0.2c0,0,0,0.1,0,0.1l0,0l0,0l0,0
	c0,0,0-0.1-0.1-0.1l-0.4,0.2c0,0,0,0.1,0,0.1l0,0l0,0l0,0c0,0-0.1-0.1-0.1-0.1l-0.4,0.2c0,0,0,0.1,0,0.1l0,0l0,0l0,0
	c0,0-0.1-0.1-0.1-0.1l-0.4,0.2c0,0,0,0.1,0,0.1l0,0l0,0l0,0c0,0-0.1-0.1-0.1-0.1l-0.4,0.3c0,0,0,0.1,0,0.1l0,0l0,0l0,0
	c0,0-0.1-0.1-0.1-0.1l-0.4,0.3c0,0,0,0.1,0,0.1l0,0l0,0l0,0c0,0-0.1-0.1-0.1-0.1l-0.4,0.3c0,0,0,0.1,0,0.1l0,0l0,0l0,0
	c0,0-0.1-0.1-0.1-0.1l-0.4,0.3c0,0,0,0.1,0,0.1l0,0l0,0l0,0c0,0-0.1,0-0.1,0l-0.3,0.3c0,0,0,0.1,0,0.1l0,0l0,0l0,0c0,0-0.1,0-0.1,0
	l-0.3,0.4c0,0,0,0.1,0.1,0.1l0,0l0,0l0,0c0,0-0.1,0-0.1,0l-0.3,0.4c0,0,0,0.1,0.1,0.1l0,0l0,0l0,0c0,0-0.1,0-0.1,0l-0.3,0.4
	c0,0,0,0.1,0.1,0.1l0,0l0,0l0,0c0,0-0.1,0-0.1,0l-0.3,0.4c0,0,0,0.1,0.1,0.1l0,0l0,0l0,0c0,0-0.1,0-0.1,0l-0.2,0.4
	c0,0,0,0.1,0.1,0.1l0,0l0,0l0,0c0,0-0.1,0-0.1,0l-0.2,0.4c0,0,0,0.1,0.1,0.1l0,0l0,0l0,0c0,0-0.1,0-0.1,0l-0.2,0.4
	c0,0,0,0.1,0.1,0.1l0,0l0,0l0,0c0,0-0.1,0-0.1,0l-0.2,0.4c0,0,0,0.1,0.1,0.1l0,0l0,0l0,0c0,0-0.1,0-0.1,0l-0.1,0.5
	c0,0,0.1,0.1,0.1,0.1l0,0l0,0l0,0c0,0-0.1,0-0.1,0l-0.1,0.5c0,0,0.1,0.1,0.1,0.1l0,0l0,0l0,0c0,0-0.1,0-0.1,0l-0.1,0.5
	c0,0,0.1,0.1,0.1,0.1l0,0l0,0l0,0c0,0-0.1,0-0.1,0l-0.1,0.5c0,0,0.1,0.1,0.1,0.1l0,0l0,0l0,0c0,0-0.1,0-0.1,0v0.5
	c0,0,0.1,0.1,0.1,0.1l0,0l0,0l0,0c0,0-0.1,0-0.1,0v0.5c0,0,0.1,0.1,0.1,0.1l0,0l0,0l0,0c0,0-0.1,0-0.1,0v0.5c0,0,0.1,0,0.1,0l0,0
	l0,0l0,0c0,0-0.1,0-0.1,0.1v0.5c0,0,0.1,0,0.1,0l0,0l0,0l0,0c0,0-0.1,0-0.1,0.1l0,0.5c0,0,0.1,0,0.1,0l0,0l0,0l0,0
	c0,0-0.1,0-0.1,0.1l0.1,0.5c0,0,0.1,0,0.1,0l0,0l0,0l0,0c0,0-0.1,0-0.1,0.1l0.1,0.5c0,0,0.1,0,0.1,0l0,0l0,0l0,0c0,0-0.1,0-0.1,0.1
	l-0.7,1.7c0,0,0.1,0,0.1,0l0,0l0,0l0,0c0,0-0.1,0-0.1,0.1l0.2,0.5c0,0,0.1,0,0.1,0l0,0l0,0l0,0c0,0-0.1,0-0.1,0.1l0.2,0.4
	c0,0,0.1,0,0.1,0l0,0l0,0l0,0c0,0-0.1,0-0.1,0.1l0.2,0.4c0,0,0.1,0,0.1,0l0,0l0,0l0,0c0,0-0.1,0.1-0.1,0.1l0.2,0.6c0,0,0.1,0,0.1,0
	l0,0l0,0l0,0c0,0-0.1,0.1-0.1,0.1l0.2,0.4c0,0,0.1,0,0.1,0l0,0l0,0l0,0c0,0-0.1,0.1-0.1,0.1l0.3,0.4c0,0,0.1,0,0.1,0l0,0l0,0l0,0
	c0,0-0.1,0.1-0.1,0.1l0.3,0.4c0,0,0.1,0,0.1,0l0,0l0,0l0,0c0,0-0.1,0.1-0.1,0.1l0.3,0.4c0,0,0.1,0,0.1,0l0,0l0,0l0,0
	c0,0-0.1,0.1-0.1,0.1l0.3,0.4c0,0,0.1,0,0.1,0l0,0l0,0l0,0c0,0,0,0.1,0,0.1l0.3,0.3c0,0,0.1,0,0.1,0l0,0l0,0l0,0c0,0,0,0.1,0,0.1
	l0.4,0.3c0,0,0.1,0,0.1-0.1l0,0l0,0l0,0c0,0,0,0.1,0,0.1l0.4,0.3c0,0,0.1,0,0.1-0.1l0,0l0,0l0,0c0,0,0,0.1,0,0.1l0.4,0.3
	c0,0,0.1,0,0.1-0.1l0,0l0,0l0,0c0,0,0,0.1,0,0.1l0.4,0.3c0,0,0.1,0,0.1-0.1l0,0l0,0l0,0c0,0,0,0.1,0,0.1l0.4,0.2c0,0,0.1,0,0.1-0.1
	l0,0l0,0l0,0c0,0,0,0.1,0,0.1l0.4,0.2c0,0,0.1,0,0.1-0.1l0,0l0,0l0,0c0,0,0,0.1,0,0.1l0.4,0.2c0,0,0.1,0,0.1-0.1l0,0l0,0l0,0
	c0,0,0,0.1,0,0.1l0.5,0.2c0,0,0.1,0,0.1-0.1l0,0l0,0l0,0c0,0,0,0.1,0,0.1l0.5,0.1c0,0,0.1-0.1,0.1-0.1l0,0l0,0l0,0c0,0,0,0.1,0,0.1
	l0.5,0.1c0,0,0.1-0.1,0.1-0.1l0,0l0,0l0,0c0,0,0,0.1,0,0.1l0.5,0.1c0,0,0.1-0.1,0.1-0.1l0,0l0,0l0,0c0,0,0,0.1,0,0.1l0.5,0.1
	c0,0,0.1-0.1,0.1-0.1l0,0l0,0l0,0c0,0,0,0.1,0,0.1l0.5,0.1c0,0,0.1-0.1,0.1-0.1l0,0l0,0l0,0c0,0,0,0.1,0,0.1h0.5
	c0,0,0.1-0.1,0.1-0.1l0,0l0,0l0,0c0,0,0,0.1,0,0.1h0.5c0,0,0-0.1,0-0.1l0,0l0,0l0,0c0,0,0,0.1,0.1,0.1h0.5c0,0,0-0.1,0-0.1l0,0l0,0
	l0,0c0,0,0,0.1,0.1,0.1l0.5-0.1c0,0,0-0.1,0-0.1l0,0l0,0l0,0c0,0,0,0.1,0.1,0.1l0.5-0.1c0,0,0-0.1,0-0.1l0,0l0,0l0,0
	c0,0,0,0.1,0.1,0.1l0.5-0.1c0,0,0-0.1,0-0.1l0,0l0,0l0,0c0,0,0,0.1,0.1,0.1l0.5-0.1c0,0,0-0.1,0-0.1l0,0l0,0l0,0c0,0,0,0.1,0.1,0.1
	l0.5-0.1c0,0,0-0.1,0-0.1l0,0l0,0l0,0c0,0,0,0.1,0.1,0.1l0.5-0.2c0,0,0-0.1,0-0.1l0,0l0,0l0,0c0,0,0,0.1,0.1,0.1l0.4-0.2
	c0,0,0-0.1,0-0.1l0,0l0,0l0,0c0,0,0.1,0.1,0.1,0.1l0.4-0.2c0,0,0-0.1,0-0.1l0,0l0,0l0,0c0,0,0.1,0.1,0.1,0.1l0.4-0.2
	c0,0,0-0.1,0-0.1l0,0l0,0l0,0c0,0,0.1,0.1,0.1,0.1l0.4-0.3c0,0,0-0.1,0-0.1l0,0l0,0l0,0c0,0,0.1,0.1,0.1,0.1l0.4-0.3
	c0,0,0-0.1,0-0.1l0,0l0,0l0,0c0,0,0.1,0.1,0.1,0.1l0.4-0.3c0,0,0-0.1,0-0.1l0,0l0,0l0,0c0,0,0.1,0.1,0.1,0.1l0.4-0.3
	c0,0,0-0.1,0-0.1l0,0l0,0l0,0c0,0,0.1,0,0.1,0l0.3-0.3c0,0,0-0.1,0-0.1l0,0l0,0l0,0c0,0,0.1,0,0.1,0l0.3-0.4c0,0,0-0.1-0.1-0.1l0,0
	l0,0l0,0c0,0,0.1,0,0.1,0l1.6-0.3c0,0,0-0.1-0.1-0.1l0,0l0,0l0,0c0,0,0.1,0,0.1,0l0.3-0.4c0,0,0-0.1-0.1-0.1l0,0l0,0l0,0
	c0,0,0.1,0,0.1,0l0.3-0.4c0,0,0-0.1-0.1-0.1l0,0l0,0l0,0c0,0,0.1,0,0.1,0l0.2-0.4c0,0,0-0.1-0.1-0.1l0,0l0,0l0,0c0,0,0.1,0,0.1,0
	l0.2-0.4c0,0,0-0.1-0.1-0.1l0,0l0,0l0,0c0,0,0.1,0,0.1,0l0.2-0.4c0,0,0-0.1-0.1-0.1l0,0l0,0l0,0c0,0,0.1,0,0.1,0l0.2-0.5
	c0,0,0-0.1-0.1-0.1l0,0l0,0l0,0c0,0,0.1,0,0.1,0l0.2-0.5c0,0-0.1-0.1-0.1-0.1l0,0l0,0l0,0c0,0,0.1,0,0.1,0l0.1-0.5
	c0,0-0.1-0.1-0.1-0.1l0,0l0,0l0,0c0,0,0.1,0,0.1,0l0.1-0.5c0,0-0.1-0.1-0.1-0.1l0,0l0,0l0,0c0,0,0.1,0,0.1,0l0.1-0.5
	c0,0-0.1-0.1-0.1-0.1l0,0l0,0l0,0c0,0,0.1,0,0.1,0l0-0.5c0,0-0.1-0.1-0.1-0.1l0,0l0,0l0,0c0,0,0.1,0,0.1,0v-0.5c0,0-0.1-0.1-0.1-0.1
	l0,0l0,0l0,0"/>
<path id="Fill-128" class="st3" d="M823.9,158.3c0.5,0,0.9-0.4,0.9-0.9c0,0,0,0,0-0.1c-0.1-0.5-0.5-0.9-1-0.8
	c-0.4,0-0.8,0.4-0.8,0.8c0,0,0,0,0,0.1C823,157.9,823.4,158.3,823.9,158.3"/>
<path id="Fill-129" class="st3" d="M821.5,159.4c0.4-0.4,0.4-0.9,0-1.3c-0.4-0.4-0.9-0.4-1.3,0c-0.4,0.4-0.4,0.9,0,1.3c0,0,0,0,0,0
	C820.5,159.8,821.1,159.8,821.5,159.4"/>
<path id="Fill-130" class="st3" d="M829.4,161.7c-0.1-0.5-0.5-0.9-1-0.8c-0.4,0-0.8,0.4-0.8,0.8c0,0,0,0,0,0.1
	c0,0.5,0.4,0.9,0.9,0.9C829,162.7,829.4,162.3,829.4,161.7C829.4,161.7,829.4,161.7,829.4,161.7
	C829.4,161.7,829.4,161.7,829.4,161.7"/>
<path id="Fill-131" class="st3" d="M827.8,159.2c0.4-0.4,0.4-0.9,0-1.3c-0.4-0.4-0.9-0.4-1.3,0c-0.4,0.4-0.4,0.9,0,1.3c0,0,0,0,0,0
	C826.8,159.6,827.4,159.6,827.8,159.2"/>
<path id="Fill-132" class="st3" d="M820.5,161.9C820.5,161.9,820.5,161.9,820.5,161.9c-0.1-0.6-0.5-0.9-1-0.9
	c-0.4,0-0.8,0.4-0.8,0.8c0,0,0,0,0,0.1c0,0.5,0.4,0.9,0.9,0.9C820.1,162.9,820.5,162.5,820.5,161.9
	C820.5,161.9,820.5,161.9,820.5,161.9"/>
<path id="Fill-133" class="st3" d="M821.6,164.4c-0.4-0.4-1-0.4-1.3,0c-0.4,0.4-0.4,1,0,1.3c0.4,0.4,1,0.4,1.3,0
	c0.2-0.2,0.3-0.5,0.3-0.7C821.9,164.8,821.8,164.6,821.6,164.4"/>
<path id="Fill-134" class="st3" d="M824.1,165.4c-0.5,0-0.9,0.4-0.9,0.8c0,0,0,0,0,0.1c0,0.5,0.4,0.9,0.9,0.9c0.5,0,0.9-0.4,0.9-0.9
	c0,0,0,0,0,0c0,0,0,0,0-0.1C825,165.8,824.6,165.4,824.1,165.4"/>
<path id="Fill-135" class="st3" d="M827.9,164.3c-0.4-0.4-1-0.4-1.3,0c-0.4,0.4-0.4,1,0,1.3s1,0.4,1.3,0c0.2-0.2,0.3-0.5,0.3-0.7
	C828.2,164.6,828.1,164.4,827.9,164.3"/>
<path id="Fill-136" class="st3" d="M821.5,161.8c0-1.4,1.1-2.5,2.5-2.5s2.5,1.1,2.5,2.5c0,1.4-1.1,2.5-2.5,2.5
	C822.6,164.4,821.5,163.2,821.5,161.8C821.5,161.8,821.5,161.8,821.5,161.8"/>
<path id="Fill-137" class="st3" d="M832.6,148.1c0,0,0.6,1.1,1.5,2.5c1.5,2.6,3.7,6.5,3.8,7.3c0.1,1.3,0.6,5.4,0.9,4.9
	c0.5-1.8,0.6-3.8,0.3-5.7c-0.4-1.5-4.1-9-4.1-9L832.6,148.1L832.6,148.1z"/>
<path id="Fill-138" class="st2" d="M918.5,150.3c0,0,6.7,1.4,8.2,1.9c3.7,1.4,6.1,6,6.3,6.8c0.3,1.3,1.6,4.3,1.8,3.7
	s-0.7-6.1-1.3-7.5c-0.6-1.4-4.6-6.5-4.6-6.5L918.5,150.3z"/>
<path id="Fill-139" class="st2" d="M915.9,150.3c0,0-6.7,1.4-8.2,1.9c-3.7,1.4-6.1,6-6.3,6.8c-0.3,1.3-1.6,4.3-1.8,3.7
	s0.7-6.1,1.3-7.5c0.6-1.4,4.6-6.5,4.6-6.5L915.9,150.3z"/>
<path id="Fill-140" class="st5" d="M837.4,140.5H835v6.2h2.4V140.5L837.4,140.5z"/>
<path id="Fill-141" class="st5" d="M837.4,107.6c0-2.4-6.5-2.8-15.5-2.3c-7.9,0.4-9.8,0.7-12.5,2.1c-1.2,0.7-2.2,1.6-2.9,2.7
	c-2.3,3.1-11.4,13.3-13.5,27.8c0.5,0.1,0.9,0.5,0.8,1v4.5c0,0.5-0.4,0.9-0.8,1c0.1,0.9,0.9,1.5,1.8,1.4c0,0,0,0,0,0
	c0,0,1.9-0.2,0.5,3.6s1,5.3,1,5.3s1.4,0,2.6,0c1.2,0,10.3,0.1,10.3,0.1l5-6.4c0,0,1.1-1.7,7.9-1.7c4.5,0,9.9,0,12.9,0v-6.2h2.4V108
	C837.4,107.9,837.4,107.7,837.4,107.6"/>
<path id="Fill-142" class="st3" d="M823.5,110.2c0,0-15.4,0-19.5,7.2c-4.7,8.3-5.7,14-5.4,16.2c0.2,2.2,0,3.6,2.6,3.3
	c13.2-1.2,11.6-5,19.4-6.1c7.4-1,9-3.5,9.4-8c0.4-4.5,0.7-12.7,0.7-12.7L823.5,110.2z"/>
<polygon id="Fill-143" class="st2" points="850.7,161.3 874.4,161.3 874.4,150.5 850.7,150.5 "/>
<path id="Fill-144" class="st2" d="M837.4,147.4h-15.3c0,0-5.4-0.3-7.3,1.4l-5,6.4h-12.9l0.4,5.2h10.4c0.1-1.8,1.1-3.5,2.7-4.5
	l4.8-6.3c0,0,1.5-1.4,6.8-1.4h15.3V147.4L837.4,147.4z"/>
<path id="Fill-145" class="st3" d="M798.3,156h10.8c-1.2,0.8-2,2.1-2.1,3.5h-8.6V156z"/>
<path id="Fill-146" class="st2" d="M797.3,154.1h-3c-0.5,0-0.9,0.4-1.1,0.8c-0.1,0.3-0.2,0.7-0.2,1v3.7c-0.1,0.9,0.5,1.6,1.3,1.8h3
	c0.8-0.2,1.4-1,1.3-1.8v-3.7C798.7,155,798.1,154.3,797.3,154.1"/>
<path id="Fill-147" class="st3" d="M795.9,146h-1.2c-0.2,0-0.5,0.2-0.6,0.4h1.4c0.5,0,0.9,0.5,0.9,1v4c0,0.5-0.4,1-0.9,1h-1.3
	c0.1,0.2,0.3,0.3,0.6,0.4h1.2c0.6-0.2,1-0.8,0.9-1.4v-4C796.8,146.7,796.5,146.2,795.9,146"/>
<path id="Fill-148" class="st6" d="M795.4,146.4h-1.3c-0.2,0.3-0.3,0.6-0.3,1v4c0,0.4,0.1,0.7,0.3,1h1.3c0.5,0,0.9-0.5,0.9-1v-4
	C796.4,146.8,795.9,146.4,795.4,146.4"/>
<polygon id="Fill-149" class="st2" points="956,148.9 949.7,146.8 850.9,146.8 840.8,137.7 840.8,110.9 838.1,110.9 838.1,146.8 
	838.1,149.6 840.8,149.6 949.3,149.6 967.2,155.4 968.1,152.8 "/>
<polygon id="Fill-150" points="949.3,149.2 838.5,149.2 838.5,111.3 840.4,111.3 840.4,137.9 850.8,147.2 949.6,147.2 967.6,153 
	967,154.9 "/>
<polygon id="Fill-151" class="st7" points="842.1,139.4 838.5,143 838.5,147.5 844.4,141.5 "/>
<polygon id="Fill-152" class="st7" points="903.2,147.2 901.2,149.2 905.7,149.2 907.7,147.2 "/>
<polygon id="Fill-153" class="st7" points="965.1,154.3 967,154.9 967.6,153 966.7,152.7 "/>
<polygon id="Fill-154" class="st7" points="894.6,147.2 892.6,149.2 897.1,149.2 899.1,147.2 "/>
<polygon id="Fill-155" class="st7" points="838.5,111.3 838.5,112.9 840,111.3 "/>
<polygon id="Fill-156" class="st7" points="877.3,147.2 875.3,149.2 879.8,149.2 881.8,147.2 "/>
<polygon id="Fill-157" class="st7" points="860.1,147.2 858.1,149.2 862.6,149.2 864.6,147.2 "/>
<polygon id="Fill-158" class="st7" points="846.6,143.5 840.9,149.2 845.3,149.2 848.9,145.6 "/>
<polygon id="Fill-159" class="st7" points="911.8,147.2 909.8,149.2 914.3,149.2 916.3,147.2 "/>
<polygon id="Fill-160" class="st7" points="885.9,147.2 884,149.2 888.5,149.2 890.4,147.2 "/>
<polygon id="Fill-161" class="st7" points="851.4,147.2 849.5,149.2 854,149.2 855.9,147.2 "/>
<polygon id="Fill-162" class="st7" points="840.4,115 838.5,117 838.5,121.5 840.4,119.5 "/>
<polygon id="Fill-163" class="st7" points="953.6,148.5 952.1,150.1 955.5,151.2 957,149.6 "/>
<polygon id="Fill-164" class="st7" points="949.6,147.2 946.3,147.2 944.3,149.2 948.8,149.2 950.5,147.5 "/>
<polygon id="Fill-165" class="st7" points="937.7,147.2 935.7,149.2 940.2,149.2 942.2,147.2 "/>
<polygon id="Fill-166" class="st7" points="929.1,147.2 927.1,149.2 931.6,149.2 933.6,147.2 "/>
<polygon id="Fill-167" class="st7" points="840.4,132.3 838.5,134.3 838.5,138.8 840.4,136.8 "/>
<polygon id="Fill-168" class="st7" points="868.7,147.2 866.7,149.2 871.2,149.2 873.2,147.2 "/>
<polygon id="Fill-169" class="st7" points="960.2,150.6 958.6,152.2 962,153.3 963.6,151.7 "/>
<polygon id="Fill-170" class="st7" points="920.4,147.2 918.5,149.2 923,149.2 924.9,147.2 "/>
<polygon id="Fill-171" class="st7" points="840.4,123.7 838.5,125.7 838.5,130.2 840.4,128.2 "/>
<polygon id="Fill-172" class="st3" points="953.4,155 952.2,155 950.6,152.2 844.2,152.2 844.2,150.2 953.4,150.2 "/>
<polygon id="Fill-173" class="st8" points="953.2,155.9 955.4,155.9 955.4,150.2 953.2,150.2 "/>
<path id="Fill-174" d="M954.1,154.8v-3.6c0-0.1,0-0.2,0.1-0.2h1.9c0-0.2-0.1-0.3-0.3-0.4H954c-0.2,0.1-0.4,0.4-0.3,0.6v3.6
	c-0.1,0.2,0.1,0.5,0.3,0.6h1.8c0.2,0,0.3-0.2,0.3-0.4h-1.9C954.1,154.9,954.1,154.8,954.1,154.8"/>
<path id="Fill-175" class="st9" d="M956.1,151h-1.9c0,0.1-0.1,0.2-0.1,0.2v3.6c0,0.1,0,0.2,0.1,0.2h1.9c0-0.1,0-0.2,0-0.2v-3.6
	C956.1,151.1,956.1,151,956.1,151"/>
<polygon id="Fill-176" class="st8" points="840.7,117 842.9,117 842.9,111.3 840.7,111.3 "/>
<path id="Fill-177" d="M841.6,115.9v-3.5c0-0.1,0-0.2,0.1-0.2h1.9c0-0.2-0.1-0.3-0.3-0.4h-1.8c-0.2,0.1-0.4,0.4-0.3,0.6v3.5
	c-0.1,0.2,0.1,0.5,0.3,0.6h1.8c0.2-0.1,0.3-0.2,0.3-0.4h-1.9C841.6,116.1,841.6,116,841.6,115.9"/>
<path id="Fill-178" class="st9" d="M843.5,112.1h-1.9c0,0.1-0.1,0.2-0.1,0.2v3.5c0,0.1,0,0.2,0.1,0.2h1.9c0-0.1,0-0.2,0-0.2v-3.5
	C843.6,112.3,843.6,112.2,843.5,112.1"/>
<path id="Fill-179" class="st10" d="M830,136.3h-2.5c-0.8,0.1-1.4,0.7-1.3,1.5c0.1,0.7,0.6,1.2,1.3,1.3h2.6c0.8-0.1,1.4-0.7,1.3-1.5
	C831.3,136.9,830.7,136.4,830,136.3"/>
<path id="Fill-180" class="st11" d="M830,100.3c0-0.2-0.2-0.3-0.4-0.3h-2.1c-0.2,0-0.3,0.1-0.4,0.3l-0.5,4.5c0,0.1,0.1,0.3,0.2,0.3
	c0,0,0,0,0,0h3.3c0.1,0,0.2-0.1,0.2-0.2c0,0,0-0.1,0-0.1L830,100.3z"/>
<path id="Fill-181" class="st3" d="M830.9,104.9c0-0.1-0.1-0.2-0.3-0.2h-4c-0.2,0-0.3,0.1-0.3,0.3v0.2c0,0.2,0.1,0.3,0.3,0.3h4
	c0.2,0,0.3-0.1,0.3-0.3L830.9,104.9C830.9,105,830.9,105,830.9,104.9"/>
<path id="Fill-182" class="st5" d="M793,137.4c0,0-0.9,6.1,0.2,7.7s1.3-7.2,1.3-7.3"/>
</svg>
