<?xml version="1.0" encoding="utf-8"?>
<!-- Generator: Adobe Illustrator 21.0.0, SVG Export Plug-In . SVG Version: 6.00 Build 0)  -->
<svg version="1.1" id="Layer_1" xmlns="http://www.w3.org/2000/svg" xmlns:xlink="http://www.w3.org/1999/xlink" x="0px" y="0px"
	 viewBox="0 0 33.8 43.9" style="enable-background:new 0 0 33.8 43.9;" xml:space="preserve">
<style type="text/css">
	.st0{fill:#124C6C;}
</style>
<path id="Fill-112_1_" class="st0" d="M33.7,18.8L33.7,18.8L33.7,18.8c0,0,0.1-0.1,0.1-0.2c-0.1-0.3-0.2-0.6-0.3-0.9l-0.1-0.2
	c-0.1-0.1-0.2-0.3-0.3-0.4c-0.1-0.1-0.1-0.1-0.2-0.1c-0.1-0.1-0.2-0.1-0.3-0.2c-0.1,0-0.3-0.1-0.4-0.2c-0.1-0.1-0.2-0.1-0.3-0.2
	l-0.2-0.1c-0.2-0.2-0.4-0.4-0.6-0.6c-0.1-0.1-0.2-0.3-0.3-0.4c-0.1,0-1.6-1.7-1.6-1.8s-1.4-1.6-1.5-1.8s-1.7-1.1-1.8-1.1
	s-1.5-1.4-1.5-1.5S24,8.9,24,8.8c0-0.1,0-0.1,0-0.2c0,0-0.1-0.1-0.1-0.1c0-0.1,0-0.1-0.1-0.2c0-0.1-0.1-0.2-0.1-0.3
	c-0.1-0.1-0.1-0.2-0.2-0.3c0,0,0,0,0-0.1c-0.1-0.2-0.3-0.5-0.5-0.7c0,0,0.1-0.1,0.1,0c0.2,0.2,0.4,0.5,0.6,0.7
	c0.2,0.2,0.5,0.3,0.7,0.4c0.1,0,0.2-0.1,0.3-0.2c0.1-0.1,0-0.2,0.1-0.2c0.1,0,0.2,0,0.3-0.1c0,0,0-0.2,0.1-0.2c0,0,0.1,0,0.1,0
	l0.2-0.2c0.1-0.1,0.1-0.1,0.2,0c0,0,0,0,0,0c0.1,0.1,0.2,0.1,0.3,0.1c0.2-0.1,0.3-0.3,0.3-0.5c0-0.1,0.2-0.7,0.2-0.8
	c0.1-0.1,0.2-0.2,0.4-0.2L27,5.4l0.1-0.2l0.1,0.1c0.1,0.2,0.2,0.4,0.4,0.6c0.1,0.2,0.3,0.3,0.5,0.4c0.2,0.1,0.4,0.1,0.5,0.1l0,0l0,0
	l0,0l0,0h0.1c0.1-0.1,0.1-0.2,0-0.3l-0.7-1.6c0-0.1,0-0.2,0-0.3c0.2-0.7,0.2-1.3,0.1-2c-0.2-0.7-0.7-1.4-1.4-1.8
	c0-0.1-0.1-0.2-0.2-0.2c0,0-0.1,0-0.1,0c-0.9-0.4-1.9-0.2-2.6,0.5c-0.2,0.1-0.1,0.1-0.1,0.1l-0.1,0.3l-0.2,0.2l0,0l0,0
	c-0.3,0.3-0.6,0.6-0.6,0.6S22,2.4,21.9,2.4c-0.1,0.1-0.2,0.2-0.2,0.4C21.6,3,21.5,3,21.3,3c-0.3,0-0.7,0-1-0.1
	c-0.1-0.1-0.2-0.2-0.3-0.2c-0.1,0-0.3,0-0.4,0c-0.1,0-0.2,0-0.3-0.1c-0.1-0.1-0.2-0.1-0.3-0.2C18,2.2,17,2.4,16.3,2.9
	C15,3.7,14,4.8,13.3,6.1c-0.4,0.7-2.1,3.2-2.2,3.3c-0.3,0.5-0.7,1-0.9,1.5c-0.1,0.3-2.1,3.7-2.1,4.5c0,0-0.1,0.4,0.1,0.4
	c0,0-0.7,1.5-1.2,2.6c-0.5,0.9-0.8,1.8-0.8,2.8C6.1,21.9,6,22.6,6,23.3c0.1,0.7-0.1,5.1-0.1,5.1c0,0.5-0.1,0.9-0.3,1.3
	c-0.1,0.4-0.3,1.7-0.5,2.2c-0.2,0.7-0.4,1.3-0.7,1.9c-0.3,0.4-1.2,2.2-1.3,2.4c-0.3,0.3-0.6,0.5-1,0.7c-0.5,0.5-1,1.1-1.4,1.8
	c-0.4,0.2-0.6,0.6-0.7,1c0.5,0.6,0.9,1.2,1.5,1.7c0.1,0,0.3,0,0.4,0c0,0,0.9,1.1,1,1.3c0.5,0.5,1.1,0.8,1.8,0.8
	c0.9,0.1,1.8,0,2.7-0.1c0-0.2,0-0.5-0.1-0.7c-0.1-0.4,0.2-1.2-1-1.4c-0.4,0-0.7-0.4-0.8-0.8c0-0.5,0-1.1-0.1-1.6
	c-0.2-0.1-0.3-0.3-0.4-0.5c0.1-0.1,0.1-0.2,0.1-0.2l1.8,1c0,0,2.6-4.1,2.8-4.2s1.2-7.6,1.3-8.7c0.7,1.9,1.3,3.9,1.8,5.9
	c0,0.7,0.3,2.7,0.4,3.2s1.1,5.9,1.1,5.9s0.1,0,0.1,0v0.7c-0.1,0.1-0.1,0.2-0.1,0.4c0,0.1,0,0.6,0,0.6c0.1,0.2,0.3,0.4,0.5,0.4
	c0.8,0.1,1.7,0.1,2.5,0c0.5,0,1,0.1,1.4,0.4c1,0.1,2.1,0,3.1-0.2c0.3-0.1,0.6-0.2,0.8-0.4c-0.1-0.2-0.2-0.4-0.3-0.5
	c0-0.4-0.1-0.7-0.4-1c-0.7,0-1.3-0.2-1.9-0.3c-0.2-0.3-0.5-0.5-0.8-0.7c0,0-0.6-0.9-0.7-1c-0.1-0.1-0.1-0.3-0.1-0.4
	c-0.2-0.8-0.5-1.5-0.9-2.3l0.2-6.7c0,0-0.2-3-0.2-3s-0.9-3-1-3.4s-0.6-2.1-0.6-2.3c0-0.5-0.2-1-0.3-1.4c-0.1-0.8-0.2-1.5-0.2-2.3
	c0-0.3,0.1-0.5,0.2-0.8c0.2,0,0.3-0.2,0.3-0.3c0-0.1,0-0.2,0-0.3c0-0.1,0.1-0.2,0.2-0.2c0.1-0.1,0.1-0.2,0.2-0.2l0.2-0.2
	c0.1-0.1,0.1-0.1,0.2-0.2c0,0,0.3-0.1,0.4-0.2c0.1-0.1,0.2-0.2,0.3-0.3c0.6,0.2,1.2,0.5,1.8,0.8c0.5,0.3,1,0.4,1.6,0.6
	c0.1,0,0.1,0.1,0.1,0.1c0.1,0,0.1,0,0.2,0.1c0,0.1,0.1,0.1,0.1,0.1c0.1,0,0.1,0,0.2,0c0,0,0,0.1,0,0.1c0,0,0.1,0.1,0.1,0.1v0.2
	c0,0.1,0.1,0.1,0.2,0.1c0.1,0,0.2,0.1,0.3,0.2c0.1,0.1,0.5,0.4,0.5,0.5c0,0.1,0,0.2,0,0.2c-0.1,0.1-0.1,0.2-0.2,0.3
	c0.1,0.1,0.2,0.2,0.3,0.2C23,18.7,23,19,23,19c0.1,0.1,0.1,0.1,0.2,0.1c0.2,0,0.4,0,0.5,0l0.2-0.1c0.1,0,0.1,0,0.2,0
	c0.1,0,0.5-0.2,0.6-0.2c0.1,0,0.2,0.1,0.3,0.1c0,0,0.1-0.1,0.1-0.1c0.2-0.1,0.3-0.2,0.4-0.4c0-0.3,0-0.7-0.1-1
	c-0.4-0.5-0.9-0.9-1.3-1.3c-0.2-0.2-0.5-0.3-0.7-0.4c-0.1-0.1-0.2-0.1-0.3-0.2c-0.1,0-0.2,0-0.3-0.1c0,0-0.1-0.1-0.2-0.1
	c-0.1,0-0.1-0.1-0.1-0.2c0-0.1-0.1-0.1-0.2-0.1c0,0-0.1,0-0.1,0c-0.2-0.2-0.4-0.4-0.6-0.5c-0.7-0.4-1.3-0.8-1.9-1.2
	c0-0.1,0-0.1,0.1-0.2c0.1-0.1,0.2-0.2,0.4-0.2c0.1-0.1,0.2-0.2,0.2-0.3c0.2-0.3,0.3-0.5,0.6-0.7c0.1-0.1,0.1-0.1,0.2-0.1
	c0-0.1,0-0.1-0.1-0.2c0-0.1,0-0.1,0-0.2c0-0.1,0-0.1,0-0.2c0.1-0.2,0.2-0.4,0.3-0.6c0-0.1,0.1-0.3,0.1-0.4c0,0,0.6,0.7,0.6,0.8
	s1.6,1.2,1.7,1.2s1.4,0.9,1.5,1.1c0.2,0.2,0.4,0.4,0.5,0.7c0,0.1,0.3,0.2,0.8,0.7c0.5,0.4,1.1,0.9,1.7,1.2c0.5,0.4,1,0.7,1.5,1.1
	l0.1,0.2c0.2,0.1,0.3,0.2,0.4,0.4c0.1,0.2,0.3,0.4,0.6,0.6l0.3,0.1h0.1c0.2,0.4,0.4,1.3,0.5,1.7l0.1,0.4c0.2,0,0.3-0.1,0.3-0.2
	c0.1,0.1,0.3,0.1,0.4,0c0-0.1,0.1-0.2,0.2-0.2c0,0,0,0,0.1,0c0,0.1,0.2,0.1,0.3,0.1c0.1-0.1,0.2-0.3,0.3-0.5l0.1-0.2
	c0-0.1,0-0.1,0.1-0.2l0,0"/>
</svg>
