<?xml version="1.0" encoding="utf-8"?>
<!-- Generator: Adobe Illustrator 21.0.0, SVG Export Plug-In . SVG Version: 6.00 Build 0)  -->
<svg version="1.1" xmlns="http://www.w3.org/2000/svg" xmlns:xlink="http://www.w3.org/1999/xlink" x="0px" y="0px"
	 viewBox="0 0 375 160" style="enable-background:new 0 0 375 160;" xml:space="preserve">
<style type="text/css">
	.st0{fill:url(#MW-Card-Header_2_);}
	.st1{fill:#44751A;}
	.st2{fill:#4A8919;}
	.st3{fill:#AEB2B7;}
	.st4{fill:#60A82C;}
	.st5{fill:none;}
</style>
<g id="Layer_1">
</g>
<g id="Layer_3">
</g>
<g id="Layer_4">
</g>
<g id="Layer_2">
</g>
<g id="Layer_5">
	
		<linearGradient id="MW-Card-Header_2_" gradientUnits="userSpaceOnUse" x1="772.4333" y1="132.3482" x2="772.4333" y2="133.6782" gradientTransform="matrix(375 0 0 -90 -289475 12036)">
		<stop  offset="0" style="stop-color:#00C7ED"/>
		<stop  offset="1" style="stop-color:#0078AB"/>
	</linearGradient>
	<path id="MW-Card-Header" class="st0" d="M0,0h375v160H0V0z"/>
	<path class="st1" d="M438.9,92.1c0-0.1,0-0.2-0.1-0.2c1.9-1.1,1.2-3.4-1.2-3.7c-1-0.2-2,0-2.8,0.6c0.7-1.1-1.1-2.3-2.6-2.7
		c2-0.1,2.1-2,1-3c1.3-0.1,2.2-1.2,2.1-2.4c-0.1-0.8-0.5-1.5-1.2-1.8c-1.3-0.8-3.3-0.5-4.8-0.2l-0.1-0.1c1.2-1,1-2.4-0.8-2.7
		c-1.5-0.4-2.7,0.6-3.8,1.2c0.2-1.6-1.6-2.3-3.5-1.6c1.2-0.7,0.7-1.9-0.8-2.4c-0.9-0.3-2.7,0.2-3.7,0.4c2.7-4-9.4-3.3-7.4,1.4
		c-1.2-0.2-2.4-0.1-3.5,0.3c-0.2-0.8-1-1.3-1.8-1.3c-0.1-0.1-0.2-0.1-0.4-0.1c1.4-3.1-4.2-2.1-5.7-1c1.1-1.9-2.5-1.3-3.5-0.6v0.2
		c-1.7-0.8-3.7-0.6-5.3,0.5c-1.6,1.2-1.1,2.5-1.1,4c-0.9-1.6-3.1-2.8-4.7-1c-0.4-1.5-1.8-2.1-3.7-1.7c-2.2,0.4-2.5,1.4-2.7,3
		c-1.8-0.5-4.1-0.5-5.3,0.8c2-2.1-1.2-4-2.7-2.4c0.5-1.7-3.3-1.9-4.8-0.7c-0.2-1.4-1-1.9-3-1.8c-1.3,0.1-2.8,0.4-3.3,1.5
		c0.3-1.9-3.6-2-5.6-0.6c0.5-0.6,0-1.6-0.8-2.1c-0.9-0.4-1.8-0.5-2.8-0.5c-1.6-0.1-5.8,0.7-4.8,2.6c-1.4,0-3.3,0.2-2.9,1.6
		c-1.4-0.3-2.9-0.2-4.3,0.1c1.6-2-3.2-1.5-4.2-1.2c-2.6,0.7-3.3,1.6-2.5,3.4c-1.9-0.4-3.4,0.2-3.8,1.7c-1.4-0.2-2.8,0.2-3.8,1.2
		c-2-2-4.4,0.5-4.1,2.2c-0.4,0.4-0.5,1.1-0.2,1.6c-0.7-0.9-2-0.8-3.1-0.4l-0.2-0.1c0.3-0.6-0.4-1.3-0.8-1.8c1.5-0.3,2.1-1.1,1.2-2.2
		c-1.1-1.1-2.3-0.7-3.7-0.5c0.2-1.8-2.3-1.7-3.8-1.7c2.5-1.2-1.6-2.7-3-2.5c-1.7,0.2-4.9,1.3-3.2,2.7c-2.4-1.2-4.5,0-6.3,1.2
		c-0.5-1-2.7-1.8-3.9-0.8c0-1.8-3.2-3.2-4.4-1.2c-1.1-0.7-2.4-0.8-3.6-0.2c-0.6,0.4-1,1.1-1.1,1.8c-1.4-0.4-2.9-0.4-4.2,0l-0.1-0.1
		c1.2-1,1.1-2.4-0.7-2.7c-1.5-0.4-2.7,0.6-3.8,1.2c0.2-1.6-1.5-2.3-3.4-1.6c1.3-0.7,0.8-1.9-0.7-2.4c-0.9-0.3-2.7,0.2-3.7,0.4
		c2.8-4-9.4-3.3-7.4,1.4c-1.2-0.1-2.4,0.1-3.4,0.7c-0.2-2.4-3.3-2.3-4.8-0.3c-2.5-1.8-5.8,0.4-5.4,2.7c-0.5-2.6-4.4-2.9-4.7-0.6
		c-1.2-1.5-2.5-2.1-3.5-1.8c-0.8-1.1-2.6-2-4.2-1.9c-1.6-0.1-3.3,0.8-4.2,1.9c-1-0.3-2.3,0.3-3.5,1.8c-0.3-2.3-4.2-2.1-4.7,0.6
		c0.4-2.2-3-4.5-5.4-2.7c-1.5-2-4.5-2.1-4.8,0.3c-1-0.6-2.2-0.9-3.4-0.7c1.9-4.7-10.3-5.4-7.4-1.4c-1-0.2-2.8-0.7-3.7-0.4
		c-1.5,0.5-1.9,1.7-0.7,2.4c-1.8-0.7-3.6,0-3.4,1.6c-1.1-0.6-2.4-1.6-3.8-1.2c-1.8,0.3-1.9,1.7-0.7,2.7l-0.1,0.1
		c-1.4-0.4-2.9-0.4-4.2,0c-0.1-0.7-0.5-1.4-1.1-1.8c-1.2-0.6-2.5-0.5-3.6,0.2c-1.2-2.1-4.4-0.6-4.4,1.2c-1.2-1-3.4-0.2-3.9,0.8
		c-1.8-1.2-3.9-2.3-6.3-1.2c1.7-1.4-1.6-2.5-3.2-2.7c-1.4-0.2-5.5,1.3-3,2.5c-1.3,0-3.3-0.1-3.7,1.1c0,0,0,0-0.1-0.1
		c-1.3-0.8-3.3-0.5-4.8-0.2l-0.1-0.1c1.2-1,1-2.4-0.8-2.7c-1.5-0.4-2.7,0.6-3.8,1.2c0.2-1.6-1.6-2.3-3.5-1.6
		c1.2-0.7,0.7-1.9-0.8-2.4c-0.9-0.3-2.7,0.2-3.7,0.4c2.6-3.9-8.7-3.3-7.5,0.9c-0.2,0.1-0.4,0.2-0.5,0.4c-1-0.1-1.9,0-2.9,0.3
		c-0.2-0.8-1-1.3-1.8-1.3c-0.1-0.1-0.2-0.1-0.4-0.2c1-2.2-1.5-2.3-3.6-1.8c-1.1-0.4-2.3-0.5-3-0.5c-0.9,0-1.9,0.1-2.8,0.5
		c-0.1,0.1-0.2,0.2-0.4,0.3c-1.6-0.5-3.3-0.2-4.7,0.7c-0.2,0.2-0.4,0.3-0.5,0.5c-0.6,0.2-0.9,0.7-0.8,1.3c-0.4-1.1-2-1.4-3.3-1.5
		c-1.6,0-2.4,0.3-2.8,1.1c-0.6-0.2-1.3-0.2-2.1-0.1c-0.2,0-0.3,0.1-0.5,0.1c-1.4-0.1-2.8,0.4-2.4,1.4c-1.1-1.3-3.5-0.3-3.3,1.2
		c-0.3,0.1-0.5,0.2-0.8,0.3c-0.1,0-0.3-0.1-0.5-0.1c0.6-1.7-2-2.9-3.2-1.5c0.4-1.2-1.6-1.7-3.3-1.3c-0.6-0.1-1.2,0-1.6,0.1
		c-0.3-1-1.1-1.4-2.9-1.3c-1.3,0.1-2.9,0.4-3.3,1.5c0.1-0.7-0.4-1.2-1.3-1.4c0,0,0,0,0,0c-1.3-0.9-3-1.1-4.5-0.7
		c-0.2-0.2-0.4-0.4-0.6-0.5c-0.9-0.4-1.8-0.5-2.8-0.5c-0.8,0-2.4,0.2-3.5,0.6c-2-0.4-4-0.1-3.1,1.9c-0.1,0-0.3,0.1-0.4,0.1
		c-0.8,0-1.5,0.5-1.8,1.3c-0.9-0.3-1.9-0.4-2.8-0.3c0-0.3-0.2-0.5-0.5-0.6c0.6-4-10.1-4.5-7.6-0.7c-1-0.2-2.8-0.7-3.7-0.4
		c-1.5,0.5-2,1.7-0.8,2.4c-1.8-0.7-3.6,0-3.5,1.6c-1.1-0.6-2.3-1.6-3.8-1.2c-1.8,0.3-2,1.7-0.8,2.7l-0.1,0.1
		c-1.5-0.3-3.5-0.5-4.8,0.2c0,0,0,0,0,0c-0.2-1.4-2.4-1.3-3.8-1.3c2.5-1.2-1.6-2.7-3-2.5c-1.7,0.2-4.9,1.3-3.2,2.7
		c-2.4-1.2-4.5,0-6.3,1.2c-0.5-1-2.7-1.8-3.9-0.8c0-1.8-3.2-3.2-4.4-1.2c-1.1-0.7-2.4-0.8-3.6-0.2c-0.6,0.4-1,1.1-1.1,1.8
		c-1.4-0.4-2.9-0.4-4.2,0l-0.1-0.1c1.2-1,1.1-2.4-0.7-2.7c-1.5-0.4-2.7,0.6-3.8,1.2c0.2-1.6-1.5-2.3-3.4-1.6
		c1.3-0.7,0.8-1.9-0.7-2.4c-0.9-0.3-2.7,0.2-3.7,0.4c2.9-4-9.3-3.3-7.4,1.4c-1.2-0.1-2.4,0.1-3.4,0.7c-0.2-2.4-3.3-2.3-4.8-0.3
		c-2.5-1.8-5.8,0.4-5.4,2.7c-0.5-2.7-4.4-2.9-4.7-0.6c-1.6-2.1-3.5-2.4-4.5-1.1c-2.2-5.9-10.8-0.2-6.8,2.2c-4.2,0.3-2.3,2.7-2.3,2.7
		c-2.3-1.3-5.3,1.8-4.1,3.1c-3-1-5.9,1.6-4.1,4c-6.1,0.3-1.5,7.1,2.3,3.7c1.1,1.2,2.5,2.6,4.7,2.7h79.8c0,0,0,0.1,0,0.1h201.5h14.4
		H441C441.1,93.5,440.2,92.3,438.9,92.1z M351.9,74.2l-0.4-0.1c0.2,0,0.5-0.1,0.7-0.2C352.1,74,352,74.1,351.9,74.2z"/>
	<path class="st2" d="M430.5,95.3c1.8-2.4-1.1-5-4.1-4c1.2-1.3-1.8-4.4-4.1-3.1c0,0,1.9-2.5-2.3-2.7c4-2.3-4.6-8.1-6.8-2.2
		c-1.1-1.3-2.9-1-4.5,1.1c-0.3-2.3-4.2-2.1-4.7,0.6c0.3-2.2-3-4.5-5.4-2.7c-1.5-2-4.5-2.1-4.8,0.3c-1-0.6-2.2-0.9-3.4-0.7
		c1.9-4.7-10.3-5.4-7.4-1.4c-1-0.2-2.8-0.7-3.7-0.4c-1.5,0.5-1.9,1.7-0.7,2.4c-1.9-0.7-3.6,0-3.4,1.6c-1.1-0.6-2.4-1.6-3.8-1.2
		c-1.8,0.3-1.9,1.7-0.7,2.7l-0.1,0.1c-1.4-0.4-2.9-0.4-4.2,0c-0.1-0.7-0.5-1.4-1.1-1.8c-1.2-0.6-2.5-0.5-3.6,0.2
		c-1.2-2.1-4.4-0.6-4.4,1.2c-1.2-1-3.4-0.2-3.9,0.8c-1.8-1.2-3.9-2.3-6.3-1.2c1.7-1.4-1.6-2.5-3.2-2.7c-1.4-0.1-5.5,1.4-3,2.5
		c-1.4,0-3.6-0.1-3.8,1.3c0,0,0,0,0,0c-1.3-0.8-3.3-0.5-4.8-0.2l-0.1-0.1c1.2-1,1-2.4-0.8-2.7c-1.5-0.4-2.7,0.6-3.8,1.2
		c0.2-1.6-1.6-2.3-3.5-1.6c1.2-0.7,0.7-1.9-0.8-2.4c-0.9-0.3-2.7,0.2-3.7,0.4c2.6-3.8-8.2-3.4-7.6,0.7c-0.3,0.1-0.5,0.3-0.5,0.6
		c-0.9-0.1-1.9,0-2.8,0.3c-0.2-0.8-1-1.3-1.8-1.3c-0.1-0.1-0.2-0.1-0.4-0.1c0.9-2-1.2-2.3-3.1-1.9c-1.1-0.5-2.7-0.7-3.5-0.6
		c-0.9,0-1.9,0.1-2.8,0.5c-0.2,0.1-0.4,0.3-0.6,0.5c-1.5-0.4-3.1-0.1-4.5,0.7c0,0,0,0,0,0c-0.8,0.2-1.4,0.7-1.3,1.4
		c-0.4-1.1-2-1.4-3.3-1.5c-1.7-0.1-2.5,0.3-2.9,1.3c-0.5-0.1-1-0.2-1.6-0.1c-1.7-0.3-3.7,0.1-3.3,1.3c-1.2-1.4-3.8-0.2-3.2,1.5
		c-0.2,0-0.3,0.1-0.5,0.1c-0.2-0.1-0.5-0.2-0.8-0.3c0.2-1.5-2.1-2.6-3.3-1.2c0.3-1-1-1.5-2.4-1.4c-0.2,0-0.3-0.1-0.5-0.1
		c-0.8-0.2-1.5-0.1-2.1,0.1c-0.4-0.8-1.2-1.1-2.8-1.1c-1.3,0.1-2.8,0.4-3.3,1.5c0.1-0.6-0.2-1-0.8-1.3c-0.1-0.2-0.3-0.3-0.5-0.5
		c-1.4-0.9-3.1-1.2-4.7-0.7c-0.1-0.1-0.2-0.2-0.4-0.3c-0.9-0.4-1.8-0.5-2.8-0.5c-0.7,0-2,0.1-3,0.5c-2.1-0.5-4.6-0.3-3.6,1.8
		c-0.1,0-0.3,0.1-0.4,0.2c-0.8,0-1.5,0.5-1.8,1.3c-0.9-0.3-1.9-0.4-2.9-0.3c-0.1-0.2-0.3-0.3-0.5-0.4c1.2-4.3-10.1-4.8-7.5-0.9
		c-1-0.2-2.8-0.7-3.7-0.4c-1.5,0.5-2,1.7-0.8,2.4c-1.8-0.7-3.6,0-3.5,1.6c-1.1-0.6-2.3-1.6-3.8-1.2c-1.8,0.3-2,1.7-0.8,2.7l-0.1,0.1
		c-1.5-0.3-3.5-0.5-4.8,0.2c0,0,0,0-0.1,0.1c-0.4-1.1-2.4-1.1-3.7-1.1c2.5-1.2-1.6-2.7-3-2.5c-1.7,0.2-4.9,1.3-3.2,2.7
		c-2.4-1.2-4.5,0-6.3,1.2c-0.5-1-2.7-1.8-3.9-0.8c0-1.8-3.2-3.2-4.4-1.2c-1.1-0.7-2.4-0.8-3.6-0.2c-0.6,0.4-1,1.1-1.1,1.8
		c-1.4-0.4-2.9-0.4-4.2,0l-0.1-0.1c1.2-1,1.1-2.4-0.7-2.7c-1.5-0.4-2.7,0.6-3.8,1.2c0.2-1.6-1.5-2.3-3.4-1.6
		c1.3-0.7,0.8-1.9-0.7-2.4c-0.9-0.3-2.7,0.2-3.7,0.4c2.8-4-9.4-3.3-7.4,1.4c-1.2-0.1-2.4,0.1-3.4,0.7c-0.2-2.4-3.3-2.3-4.8-0.3
		c-2.5-1.8-5.8,0.4-5.4,2.7c-0.5-2.6-4.4-2.9-4.7-0.6c-1.2-1.5-2.5-2.1-3.5-1.8c-0.8-1.1-2.6-2-4.2-1.9c-1.6-0.1-3.3,0.8-4.2,1.9
		c-1-0.3-2.3,0.3-3.5,1.8c-0.3-2.3-4.2-2.1-4.7,0.6c0.3-2.2-3-4.5-5.4-2.7c-1.5-2-4.5-2.1-4.8,0.3c-1-0.6-2.2-0.9-3.4-0.7
		c1.9-4.7-10.3-5.4-7.4-1.4c-1-0.2-2.8-0.7-3.7-0.4c-1.5,0.5-1.9,1.7-0.7,2.4c-1.9-0.7-3.6,0-3.4,1.6c-1.1-0.6-2.4-1.6-3.8-1.2
		c-1.8,0.3-1.9,1.7-0.7,2.7l-0.1,0.1c-1.4-0.4-2.9-0.4-4.2,0c-0.1-0.7-0.5-1.4-1.1-1.8c-1.2-0.6-2.5-0.5-3.6,0.2
		c-1.2-2.1-4.4-0.6-4.4,1.2c-1.2-1-3.4-0.2-3.9,0.8c-1.8-1.2-3.9-2.3-6.3-1.2c1.7-1.4-1.6-2.5-3.2-2.7c-1.4-0.2-5.5,1.3-3,2.5
		c-1.5,0-3.9-0.1-3.8,1.7c-1.4-0.1-2.7-0.6-3.7,0.5c-0.9,1.1-0.2,1.9,1.2,2.2c-0.4,0.5-1,1.2-0.8,1.8l-0.2,0.1
		c-1.1-0.4-2.4-0.5-3.1,0.4c0.3-0.5,0.2-1.2-0.2-1.6c0.4-1.7-2.1-4.2-4.1-2.2c-1-0.9-2.4-1.4-3.8-1.2c-0.4-1.5-1.9-2.1-3.8-1.7
		c0.8-1.8,0-2.6-2.5-3.4c-1.1-0.2-5.9-0.8-4.2,1.2c-1.4-0.3-2.8-0.3-4.3-0.1c0.4-1.5-1.5-1.6-2.9-1.6c1-1.9-3.2-2.7-4.8-2.6
		c-0.9,0-1.9,0.1-2.8,0.5c-0.8,0.4-1.3,1.5-0.8,2.1c-2-1.4-5.9-1.2-5.6,0.6c-0.4-1.1-2-1.4-3.3-1.5c-2-0.1-2.8,0.5-3,1.8
		c-1.5-1.1-5.3-0.9-4.8,0.7c-1.4-1.6-4.7,0.3-2.7,2.4c-1.1-1.3-3.5-1.3-5.3-0.8c-0.2-1.6-0.5-2.6-2.7-3c-1.9-0.4-3.3,0.3-3.7,1.7
		c-1.6-1.8-3.8-0.6-4.7,1c0.1-1.5,0.5-2.8-1.1-4c-1.6-1-3.6-1.2-5.3-0.5v-0.2c-1-0.7-4.6-1.3-3.5,0.6c-1.5-1.1-7-2.1-5.7,1
		c-0.1,0-0.3,0.1-0.4,0.1c-0.8,0-1.5,0.5-1.8,1.3c-1.1-0.4-2.3-0.5-3.5-0.3c2-4.7-10.1-5.4-7.4-1.4c-1-0.2-2.8-0.7-3.7-0.4
		c-1.5,0.5-2,1.7-0.8,2.4c-1.8-0.7-3.6,0-3.5,1.6c-1.1-0.6-2.3-1.6-3.8-1.2c-1.8,0.3-2,1.7-0.8,2.7l-0.1,0.1
		c-1.5-0.3-3.5-0.5-4.8,0.2c-0.7,0.4-1.1,1.1-1.2,1.8c-0.1,1.3,0.9,2.4,2.1,2.4c-1.1,1-1,2.9,1,3c-1.5,0.4-3.3,1.6-2.6,2.7
		c-0.8-0.6-1.8-0.8-2.8-0.6c-2.3,0.3-3,2.5-1.2,3.7c-0.1,0.1-0.1,0.2-0.1,0.2c-1.3,0.2-2.2,1.3-2.1,2.6h201.5h14.4h201.5
		c0,0,0-0.1,0-0.1h79.8c2.2-0.2,3.6-1.5,4.7-2.7C432,102.4,436.6,95.6,430.5,95.3z M15.5,81.3c-0.1-0.1-0.2-0.2-0.3-0.3
		c0.2,0.1,0.4,0.2,0.7,0.2L15.5,81.3z"/>
	<rect y="115" class="st3" width="375" height="45"/>
	<polygon id="Fill-7" class="st4" points="0,115 375,115 375,102.1 0,102.1 	"/>
	<path id="MW-Card-Header_1_" class="st5" d="M0,0h375v160H0V0z"/>
</g>
</svg>
