<?xml version="1.0" encoding="utf-8"?>
<!-- Generator: Adobe Illustrator 21.0.0, SVG Export Plug-In . SVG Version: 6.00 Build 0)  -->
<svg version="1.1" xmlns="http://www.w3.org/2000/svg" xmlns:xlink="http://www.w3.org/1999/xlink" x="0px" y="0px"
	 viewBox="0 0 375 160" style="enable-background:new 0 0 375 160;" xml:space="preserve">
<style type="text/css">
	.st0{fill:url(#MW-Card-Header_1_);}
	.st1{display:none;}
	.st2{display:inline;fill:#44751A;}
	.st3{display:inline;}
	.st4{fill:#4A8919;}
	.st5{display:inline;fill:#AEB2B7;}
	.st6{display:inline;fill:#60A82C;}
</style>
<g id="Layer_1">
	
		<linearGradient id="MW-Card-Header_1_" gradientUnits="userSpaceOnUse" x1="772.4333" y1="132.3482" x2="772.4333" y2="133.6782" gradientTransform="matrix(375 0 0 -90 -289475 12036)">
		<stop  offset="0" style="stop-color:#00C7ED"/>
		<stop  offset="1" style="stop-color:#0078AB"/>
	</linearGradient>
	<path id="MW-Card-Header" class="st0" d="M0,0h375v160H0V0z"/>
</g>
<g id="Layer_3" class="st1">
	<path id="Fill-18_5_" class="st2" d="M352.2,73.9c-0.1,0.1-0.2,0.2-0.3,0.3l-0.4-0.1C351.8,74.1,352,74,352.2,73.9 M220.5,92
		c1.1,1.2,2.5,2.6,4.7,2.7H441c0.1-1.3-0.9-2.4-2.1-2.6c0-0.1,0-0.2-0.1-0.2c1.9-1.1,1.2-3.4-1.2-3.7c-1-0.2-2,0-2.8,0.6
		c0.7-1.1-1.1-2.3-2.6-2.7c2-0.1,2.1-2,1-3c1.3-0.1,2.2-1.2,2.1-2.4c-0.1-0.8-0.5-1.5-1.2-1.8c-1.3-0.8-3.3-0.5-4.8-0.2l-0.1-0.1
		c1.2-1,1-2.4-0.8-2.7c-1.5-0.4-2.7,0.6-3.8,1.2c0.2-1.6-1.6-2.3-3.5-1.6c1.2-0.7,0.7-1.9-0.8-2.4c-0.9-0.3-2.7,0.2-3.7,0.4
		c2.7-4-9.4-3.3-7.4,1.4c-1.2-0.2-2.4-0.1-3.5,0.3c-0.2-0.8-1-1.3-1.8-1.3c-0.1-0.1-0.2-0.1-0.4-0.2c1.4-3.1-4.2-2.1-5.7-1
		c1.1-1.9-2.5-1.3-3.5-0.6v0.2c-1.7-0.8-3.7-0.6-5.3,0.5c-1.6,1.2-1.1,2.5-1.1,4c-0.9-1.6-3.1-2.8-4.7-1c-0.4-1.5-1.8-2.1-3.7-1.7
		c-2.2,0.4-2.5,1.4-2.7,3c-1.8-0.5-4.1-0.5-5.3,0.8c2-2.1-1.2-4-2.7-2.4c0.5-1.7-3.3-1.9-4.8-0.7c-0.2-1.4-1-1.9-3-1.8
		c-1.3,0.1-2.9,0.4-3.3,1.5c0.3-1.9-3.6-2-5.6-0.6c0.5-0.6,0-1.6-0.8-2.1c-0.9-0.4-1.8-0.5-2.8-0.5c-1.6-0.1-5.8,0.7-4.8,2.6
		c-1.4,0-3.3,0.2-2.9,1.7c-1.4-0.3-2.9-0.2-4.3,0.1c1.6-2-3.2-1.5-4.2-1.2c-2.6,0.7-3.3,1.6-2.5,3.4c-1.9-0.4-3.4,0.2-3.8,1.7
		c-1.4-0.2-2.8,0.2-3.8,1.2c-2-2-4.4,0.5-4.1,2.2c-0.4,0.4-0.5,1.1-0.2,1.6c-0.7-0.9-2-0.8-3.1-0.4l-0.2-0.1
		c0.3-0.6-0.4-1.3-0.8-1.8c1.5-0.3,2.1-1.1,1.2-2.2c-1.1-1.1-2.3-0.7-3.7-0.5c0.1-1.8-2.3-1.7-3.8-1.7c2.5-1.2-1.6-2.7-3-2.5
		c-1.7,0.2-4.9,1.3-3.2,2.7c-2.4-1.2-4.5,0-6.3,1.2c-0.5-1-2.7-1.8-3.9-0.8c0-1.8-3.2-3.2-4.4-1.2c-1.1-0.7-2.4-0.8-3.6-0.2
		c-0.6,0.4-1,1.1-1.1,1.8c-1.4-0.4-2.9-0.4-4.2,0l-0.1-0.1c1.2-1,1.1-2.4-0.7-2.7c-1.5-0.4-2.7,0.6-3.8,1.2c0.2-1.6-1.5-2.3-3.4-1.6
		c1.3-0.7,0.8-1.9-0.7-2.4c-0.9-0.3-2.7,0.2-3.7,0.4c2.9-4-9.4-3.3-7.4,1.4c-1.2-0.1-2.4,0.1-3.4,0.7c-0.2-2.4-3.3-2.3-4.8-0.3
		c-2.5-1.8-5.8,0.4-5.4,2.7c-0.5-2.7-4.4-2.9-4.7-0.6c-1.6-2.1-3.4-2.4-4.5-1.1c-2.2-5.9-10.8-0.2-6.8,2.2c-4.2,0.3-2.3,2.7-2.3,2.7
		c-2.3-1.3-5.3,1.8-4.1,3.1c-3-1.1-5.9,1.6-4.1,4C212.1,88.7,216.8,95.4,220.5,92"/>
	<path id="Fill-18_4_" class="st2" d="M112.5,73.9c0.2,0.1,0.4,0.2,0.7,0.2l-0.4,0.1C112.7,74.1,112.6,74,112.5,73.9 M244.2,92
		c3.7,3.4,8.4-3.4,2.3-3.7c1.8-2.4-1.1-5.1-4.1-4c1.2-1.3-1.8-4.4-4.1-3.1c0,0,1.9-2.5-2.3-2.7c4-2.3-4.6-8.1-6.8-2.2
		c-1.1-1.3-2.9-1-4.5,1.1c-0.3-2.3-4.2-2.1-4.7,0.6c0.4-2.2-3-4.5-5.4-2.7c-1.5-2-4.5-2.1-4.8,0.3c-1-0.6-2.2-0.9-3.4-0.7
		c1.9-4.7-10.3-5.4-7.4-1.4c-1-0.2-2.8-0.7-3.7-0.4c-1.5,0.5-1.9,1.7-0.7,2.4c-1.9-0.7-3.6,0-3.4,1.6c-1.1-0.6-2.4-1.6-3.8-1.2
		c-1.8,0.3-1.9,1.7-0.7,2.7l-0.1,0.1c-1.4-0.4-2.9-0.4-4.2,0c-0.1-0.7-0.5-1.4-1.1-1.8c-1.2-0.6-2.5-0.5-3.6,0.2
		c-1.2-2.1-4.4-0.6-4.4,1.2c-1.2-1-3.4-0.2-3.9,0.8c-1.8-1.2-3.9-2.3-6.3-1.2c1.7-1.4-1.6-2.5-3.2-2.7c-1.4-0.2-5.5,1.3-3,2.5
		c-1.5,0-3.9-0.1-3.8,1.7c-1.4-0.1-2.6-0.5-3.7,0.5c-0.9,1.1-0.2,1.9,1.2,2.2c-0.4,0.5-1,1.2-0.8,1.8l-0.2,0.1
		c-1.1-0.4-2.4-0.5-3.1,0.4c0.3-0.5,0.2-1.2-0.2-1.6c0.4-1.7-2.1-4.2-4.1-2.2c-1-0.9-2.4-1.4-3.8-1.2c-0.4-1.5-1.9-2.1-3.8-1.7
		c0.8-1.8,0-2.6-2.5-3.4c-1.1-0.2-5.9-0.8-4.2,1.2c-1.4-0.3-2.8-0.3-4.3-0.1c0.4-1.5-1.5-1.7-2.9-1.7c1-1.9-3.2-2.7-4.8-2.6
		c-0.9,0-1.9,0.1-2.8,0.5c-0.8,0.4-1.3,1.5-0.8,2.1c-2-1.4-5.9-1.2-5.6,0.6c-0.4-1.1-2-1.4-3.3-1.5c-2-0.1-2.8,0.5-3,1.8
		c-1.5-1.1-5.3-0.9-4.8,0.7c-1.4-1.6-4.7,0.3-2.7,2.4c-1.1-1.3-3.5-1.3-5.3-0.8c-0.1-1.6-0.5-2.6-2.7-3c-1.9-0.4-3.3,0.3-3.7,1.7
		c-1.6-1.8-3.8-0.6-4.7,1c0.1-1.5,0.5-2.8-1.1-4c-1.6-1-3.6-1.2-5.3-0.5V72c-1-0.7-4.6-1.3-3.5,0.6c-1.5-1.1-7-2.1-5.7,1
		c-0.1,0-0.3,0.1-0.4,0.2c-0.8,0-1.5,0.5-1.8,1.3c-1.1-0.4-2.3-0.5-3.5-0.3c2-4.7-10.1-5.4-7.4-1.4c-1-0.2-2.8-0.7-3.7-0.4
		c-1.5,0.5-2,1.7-0.8,2.4c-1.8-0.7-3.6,0-3.5,1.6c-1.1-0.6-2.3-1.6-3.8-1.2c-1.8,0.3-2,1.7-0.8,2.7l-0.1,0.1
		c-1.5-0.3-3.5-0.5-4.8,0.2c-0.7,0.4-1.1,1.1-1.2,1.8c-0.1,1.3,0.9,2.4,2.1,2.4c-1.1,1-1,2.9,1,3c-1.5,0.4-3.3,1.6-2.6,2.7
		c-0.8-0.6-1.8-0.8-2.8-0.6c-2.3,0.3-3.1,2.5-1.2,3.7c-0.1,0.1-0.1,0.2-0.1,0.2c-1.3,0.2-2.2,1.3-2.1,2.6h215.9
		C241.8,94.6,243.1,93.2,244.2,92"/>
	<path id="Fill-18_3_" class="st2" d="M71,73.8c-0.1,0.1-0.2,0.2-0.3,0.3l-0.4-0.1C70.5,73.9,70.8,73.9,71,73.8 M-60.8,91.9
		c1.1,1.2,2.5,2.6,4.7,2.7h215.9c0.1-1.3-0.9-2.4-2.1-2.6c0-0.1,0-0.2-0.1-0.2c1.9-1.1,1.2-3.4-1.2-3.7c-1-0.2-2,0-2.8,0.6
		c0.7-1.1-1.1-2.3-2.6-2.7c2-0.1,2.1-2,1-3c1.3-0.1,2.2-1.2,2.1-2.4c-0.1-0.8-0.5-1.5-1.2-1.8c-1.3-0.8-3.3-0.5-4.8-0.2l-0.1-0.1
		c1.2-1,1-2.4-0.8-2.7c-1.5-0.4-2.7,0.6-3.8,1.2c0.2-1.6-1.6-2.3-3.5-1.6c1.2-0.7,0.7-1.9-0.8-2.4c-0.9-0.3-2.7,0.2-3.7,0.4
		c2.7-4-9.4-3.3-7.4,1.4c-1.2-0.2-2.4-0.1-3.5,0.3c-0.2-0.8-1-1.3-1.8-1.3c-0.1-0.1-0.2-0.1-0.4-0.2c1.4-3.1-4.2-2.1-5.7-1
		c1.1-1.9-2.5-1.3-3.5-0.6v0.2c-1.7-0.8-3.7-0.6-5.3,0.5c-1.6,1.2-1.1,2.5-1.1,4c-0.9-1.6-3.1-2.8-4.7-1c-0.4-1.5-1.8-2.1-3.7-1.7
		c-2.2,0.4-2.5,1.4-2.7,3c-1.8-0.5-4.1-0.5-5.3,0.8c2-2.1-1.2-4-2.7-2.4c0.5-1.7-3.3-1.9-4.8-0.7c-0.2-1.4-1-1.9-3-1.8
		c-1.3,0.1-2.9,0.4-3.3,1.5c0.3-1.9-3.6-2-5.6-0.6c0.5-0.6,0-1.6-0.8-2.1c-0.9-0.4-1.8-0.5-2.8-0.5c-1.6-0.1-5.8,0.7-4.8,2.6
		c-1.4,0-3.3,0.2-2.9,1.7c-1.4-0.3-2.9-0.2-4.3,0.1c1.6-2-3.2-1.5-4.2-1.2c-2.6,0.7-3.3,1.6-2.5,3.4c-1.9-0.4-3.4,0.2-3.8,1.7
		c-1.4-0.2-2.8,0.2-3.8,1.2c-2-2-4.4,0.5-4.1,2.2c-0.4,0.4-0.5,1.1-0.2,1.6c-0.7-0.9-2-0.8-3.1-0.4l-0.2-0.1
		c0.3-0.6-0.4-1.3-0.8-1.8c1.5-0.3,2.1-1.1,1.2-2.2c-1.1-1.1-2.3-0.7-3.7-0.5c0.1-1.8-2.3-1.7-3.8-1.7c2.5-1.2-1.6-2.7-3-2.5
		c-1.7,0.2-4.9,1.3-3.2,2.7c-2.4-1.2-4.5,0-6.3,1.2c-0.5-1-2.7-1.8-3.9-0.8c0-1.8-3.2-3.2-4.4-1.2c-1.1-0.7-2.4-0.8-3.6-0.2
		c-0.6,0.4-1,1.1-1.1,1.8c-1.4-0.4-2.9-0.4-4.2,0l-0.1-0.1c1.2-1,1.1-2.4-0.7-2.7c-1.5-0.4-2.7,0.6-3.8,1.2c0.2-1.6-1.5-2.3-3.4-1.6
		c1.3-0.7,0.8-1.9-0.7-2.4c-0.9-0.3-2.7,0.2-3.7,0.4c2.9-4-9.4-3.3-7.4,1.4c-1.2-0.1-2.4,0.1-3.4,0.7c-0.2-2.4-3.3-2.3-4.8-0.3
		c-2.5-1.8-5.8,0.4-5.4,2.7c-0.5-2.7-4.4-2.9-4.7-0.6c-1.6-2.1-3.4-2.4-4.5-1.1c-2.2-5.9-10.8-0.2-6.8,2.2c-4.2,0.3-2.3,2.7-2.3,2.7
		c-2.3-1.3-5.3,1.8-4.1,3.1c-3-1.1-5.9,1.6-4.1,4C-69.2,88.5-64.5,95.3-60.8,91.9"/>
</g>
<g id="Layer_4" class="st1">
	<g class="st3">
		<path id="Fill-18" class="st4" d="M15.2,81c0.2,0.1,0.4,0.2,0.7,0.2l-0.4,0.1C15.4,81.1,15.3,81.1,15.2,81 M147,99.1
			c3.7,3.4,8.4-3.4,2.3-3.7c1.8-2.4-1.1-5.1-4.1-4c1.2-1.3-1.8-4.4-4.1-3.1c0,0,1.9-2.5-2.3-2.7c4-2.3-4.6-8.1-6.8-2.2
			c-1.1-1.3-2.9-1-4.5,1.1c-0.3-2.3-4.2-2.1-4.7,0.6c0.4-2.2-3-4.5-5.4-2.7c-1.5-2-4.5-2.1-4.8,0.3c-1-0.6-2.2-0.9-3.4-0.7
			c1.9-4.7-10.3-5.4-7.4-1.4c-1-0.2-2.8-0.7-3.7-0.4c-1.5,0.5-1.9,1.7-0.7,2.4c-1.9-0.7-3.6,0-3.4,1.6c-1.1-0.6-2.4-1.6-3.8-1.2
			c-1.8,0.3-1.9,1.7-0.7,2.7l-0.1,0.1c-1.4-0.4-2.9-0.4-4.2,0c-0.1-0.7-0.5-1.4-1.1-1.8c-1.2-0.6-2.5-0.5-3.6,0.2
			c-1.2-2.1-4.4-0.6-4.4,1.2c-1.2-1-3.4-0.2-3.9,0.8c-1.8-1.2-3.9-2.3-6.3-1.2c1.7-1.4-1.6-2.5-3.2-2.7c-1.4-0.2-5.5,1.3-3,2.5
			c-1.5,0-3.9-0.1-3.8,1.7c-1.4-0.1-2.6-0.5-3.7,0.5c-0.9,1.1-0.2,1.9,1.2,2.2c-0.4,0.5-1,1.2-0.8,1.8l-0.2,0.1
			c-1.1-0.4-2.4-0.5-3.1,0.4c0.3-0.5,0.2-1.2-0.2-1.6c0.4-1.7-2.1-4.2-4.1-2.2c-1-0.9-2.4-1.4-3.8-1.2c-0.4-1.5-1.9-2.1-3.8-1.7
			c0.8-1.8,0-2.6-2.5-3.4c-1.1-0.2-5.9-0.8-4.2,1.2c-1.4-0.3-2.8-0.3-4.3-0.1c0.4-1.5-1.5-1.7-2.9-1.7c1-1.9-3.2-2.7-4.8-2.6
			c-0.9,0-1.9,0.1-2.8,0.5c-0.8,0.4-1.3,1.5-0.8,2.1c-2-1.4-5.9-1.2-5.6,0.6c-0.4-1.1-2-1.4-3.3-1.5c-2-0.1-2.8,0.5-3,1.8
			c-1.5-1.1-5.3-0.9-4.8,0.7c-1.4-1.6-4.7,0.3-2.7,2.4c-1.1-1.3-3.5-1.3-5.3-0.8c-0.1-1.6-0.5-2.6-2.7-3c-1.9-0.4-3.3,0.3-3.7,1.7
			c-1.6-1.8-3.8-0.6-4.7,1c0.1-1.5,0.5-2.8-1.1-4c-1.6-1-3.6-1.2-5.3-0.5v-0.2c-1-0.7-4.6-1.3-3.5,0.6c-1.5-1.1-7-2.1-5.7,1
			c-0.1,0-0.3,0.1-0.4,0.2c-0.8,0-1.5,0.5-1.8,1.3c-1.1-0.4-2.3-0.5-3.5-0.3c2-4.7-10.1-5.4-7.4-1.4c-1-0.2-2.8-0.7-3.7-0.4
			c-1.5,0.5-2,1.7-0.8,2.4c-1.8-0.7-3.6,0-3.5,1.6c-1.1-0.6-2.3-1.6-3.8-1.2c-1.8,0.3-2,1.7-0.8,2.7l-0.1,0.1
			c-1.5-0.3-3.5-0.5-4.8,0.2c-0.7,0.4-1.1,1.1-1.2,1.8c-0.1,1.3,0.9,2.4,2.1,2.4c-1.1,1-1,2.9,1,3c-1.5,0.4-3.3,1.6-2.6,2.7
			c-0.8-0.6-1.8-0.8-2.8-0.6c-2.3,0.3-3.1,2.5-1.2,3.7c-0.1,0.1-0.1,0.2-0.1,0.2c-1.3,0.2-2.2,1.3-2.1,2.6h215.8
			C144.5,101.7,145.9,100.3,147,99.1"/>
		<path id="Fill-18_1_" class="st4" d="M255,81c-0.1,0.1-0.2,0.2-0.3,0.3l-0.4-0.1C254.6,81.1,254.8,81.1,255,81 M123.2,99.1
			c1.1,1.2,2.5,2.6,4.7,2.7h215.9c0.1-1.3-0.9-2.4-2.1-2.6c0-0.1,0-0.2-0.1-0.2c1.9-1.1,1.2-3.4-1.2-3.7c-1-0.2-2,0-2.8,0.6
			c0.7-1.1-1.1-2.3-2.6-2.7c2-0.1,2.1-2,1-3c1.3-0.1,2.2-1.2,2.1-2.4c-0.1-0.8-0.5-1.5-1.2-1.8c-1.3-0.8-3.3-0.5-4.8-0.2l-0.1-0.1
			c1.2-1,1-2.4-0.8-2.7c-1.5-0.4-2.7,0.6-3.8,1.2c0.2-1.6-1.6-2.3-3.5-1.6c1.2-0.7,0.7-1.9-0.8-2.4c-0.9-0.3-2.7,0.2-3.7,0.4
			c2.7-4-9.4-3.3-7.4,1.4c-1.2-0.2-2.4-0.1-3.5,0.3c-0.2-0.8-1-1.3-1.8-1.3c-0.1-0.1-0.2-0.1-0.4-0.2c1.4-3.1-4.2-2.1-5.7-1
			c1.1-1.9-2.5-1.3-3.5-0.6v0.2c-1.7-0.8-3.7-0.6-5.3,0.5c-1.6,1.2-1.1,2.5-1.1,4c-0.9-1.6-3.1-2.8-4.7-1c-0.4-1.5-1.8-2.1-3.7-1.7
			c-2.2,0.4-2.5,1.4-2.7,3c-1.8-0.5-4.1-0.5-5.3,0.8c2-2.1-1.2-4-2.7-2.4c0.5-1.7-3.3-1.9-4.8-0.7c-0.2-1.4-1-1.9-3-1.8
			c-1.3,0.1-2.9,0.4-3.3,1.5c0.3-1.9-3.6-2-5.6-0.6c0.5-0.6,0-1.6-0.8-2.1c-0.9-0.4-1.8-0.5-2.8-0.5c-1.6-0.1-5.8,0.7-4.8,2.6
			c-1.4,0-3.3,0.2-2.9,1.7c-1.4-0.3-2.9-0.2-4.3,0.1c1.6-2-3.2-1.5-4.2-1.2c-2.6,0.7-3.3,1.6-2.5,3.4c-1.9-0.4-3.4,0.2-3.8,1.7
			c-1.4-0.2-2.8,0.2-3.8,1.2c-2-2-4.4,0.5-4.1,2.2c-0.4,0.4-0.5,1.1-0.2,1.6c-0.7-0.9-2-0.8-3.1-0.4l-0.2-0.1
			c0.3-0.6-0.4-1.3-0.8-1.8c1.5-0.3,2.1-1.1,1.2-2.2c-1.1-1.1-2.3-0.7-3.7-0.5c0.1-1.8-2.3-1.7-3.8-1.7c2.5-1.2-1.6-2.7-3-2.5
			c-1.7,0.2-4.9,1.3-3.2,2.7c-2.4-1.2-4.5,0-6.3,1.2c-0.5-1-2.7-1.8-3.9-0.8c0-1.8-3.2-3.2-4.4-1.2c-1.1-0.7-2.4-0.8-3.6-0.2
			c-0.6,0.4-1,1.1-1.1,1.8c-1.4-0.4-2.9-0.4-4.2,0l-0.1-0.1c1.2-1,1.1-2.4-0.7-2.7c-1.5-0.4-2.7,0.6-3.8,1.2
			c0.2-1.6-1.5-2.3-3.4-1.6c1.3-0.7,0.8-1.9-0.7-2.4c-0.9-0.3-2.7,0.2-3.7,0.4c2.9-4-9.4-3.3-7.4,1.4c-1.2-0.1-2.4,0.1-3.4,0.7
			c-0.2-2.4-3.3-2.3-4.8-0.3c-2.5-1.8-5.8,0.4-5.4,2.7c-0.5-2.7-4.4-2.9-4.7-0.6c-1.6-2.1-3.4-2.4-4.5-1.1
			c-2.2-5.9-10.8-0.2-6.8,2.2c-4.2,0.3-2.3,2.7-2.3,2.7c-2.3-1.3-5.3,1.8-4.1,3.1c-3-1.1-5.9,1.6-4.1,4
			C114.8,95.7,119.5,102.5,123.2,99.1"/>
		<path id="Fill-18_2_" class="st4" d="M296.5,80.8c0.2,0.1,0.4,0.2,0.7,0.2l-0.4,0.1C296.7,81,296.6,80.9,296.5,80.8 M428.2,99
			c3.7,3.4,8.4-3.4,2.3-3.7c1.8-2.4-1.1-5.1-4.1-4c1.2-1.3-1.8-4.4-4.1-3.1c0,0,1.9-2.5-2.3-2.7c4-2.3-4.6-8.1-6.8-2.2
			c-1.1-1.3-2.9-1-4.5,1.1c-0.3-2.3-4.1-2.1-4.7,0.6c0.4-2.2-3-4.5-5.4-2.7c-1.5-2-4.5-2.1-4.8,0.3c-1-0.6-2.2-0.9-3.4-0.7
			c1.9-4.7-10.3-5.4-7.4-1.4c-1-0.2-2.9-0.7-3.7-0.4c-1.5,0.5-1.9,1.7-0.7,2.4c-1.9-0.7-3.6,0-3.4,1.6c-1.1-0.6-2.4-1.6-3.8-1.2
			c-1.8,0.3-1.9,1.7-0.7,2.7l-0.1,0.1c-1.4-0.4-2.9-0.4-4.2,0c-0.1-0.7-0.5-1.4-1.1-1.8c-1.2-0.6-2.5-0.5-3.6,0.2
			c-1.2-2.1-4.4-0.6-4.4,1.2c-1.2-1-3.4-0.2-3.9,0.8c-1.8-1.2-3.9-2.3-6.3-1.2c1.7-1.4-1.6-2.5-3.2-2.7c-1.4-0.2-5.5,1.3-3,2.5
			c-1.5,0-3.9-0.1-3.8,1.7c-1.4-0.1-2.6-0.5-3.7,0.5c-0.9,1.1-0.2,1.9,1.2,2.2c-0.4,0.5-1,1.2-0.8,1.8l-0.2,0.1
			c-1.1-0.4-2.4-0.5-3.1,0.4c0.3-0.5,0.2-1.2-0.2-1.6c0.4-1.7-2.1-4.2-4.1-2.2c-1-0.9-2.4-1.4-3.8-1.2c-0.4-1.5-1.9-2.1-3.8-1.7
			c0.8-1.8,0-2.6-2.5-3.4c-1.1-0.2-5.9-0.8-4.2,1.2c-1.4-0.3-2.8-0.3-4.3-0.1c0.4-1.5-1.5-1.7-2.9-1.7c1-1.9-3.2-2.7-4.8-2.6
			c-0.9,0-1.9,0.1-2.8,0.5c-0.8,0.4-1.3,1.5-0.8,2.1c-2-1.4-5.9-1.2-5.6,0.6c-0.4-1.1-2-1.4-3.3-1.5c-2-0.1-2.8,0.5-3,1.8
			c-1.5-1.1-5.3-0.9-4.8,0.7c-1.4-1.6-4.7,0.3-2.7,2.4c-1.1-1.3-3.5-1.3-5.3-0.8c-0.1-1.6-0.5-2.6-2.7-3c-1.9-0.4-3.3,0.3-3.7,1.7
			c-1.6-1.8-3.8-0.6-4.7,1c0.1-1.5,0.5-2.8-1.1-4c-1.6-1-3.6-1.2-5.3-0.5V79c-1-0.7-4.6-1.3-3.5,0.6c-1.5-1.1-7-2.1-5.7,1
			c-0.1,0-0.3,0.1-0.4,0.2c-0.8,0-1.5,0.5-1.8,1.3c-1.1-0.4-2.3-0.5-3.5-0.3c2-4.7-10.1-5.4-7.4-1.4c-1-0.2-2.8-0.7-3.7-0.4
			c-1.5,0.5-2,1.7-0.8,2.4c-1.8-0.7-3.6,0-3.5,1.6c-1.1-0.6-2.3-1.6-3.8-1.2c-1.8,0.3-2,1.7-0.8,2.7l-0.1,0.1
			c-1.5-0.3-3.5-0.5-4.8,0.2c-0.7,0.4-1.1,1.1-1.2,1.8c-0.1,1.3,0.9,2.4,2.1,2.4c-1.1,1-1,2.9,1,3c-1.5,0.4-3.3,1.6-2.6,2.7
			c-0.8-0.6-1.8-0.8-2.8-0.6c-2.3,0.3-3.1,2.5-1.2,3.7c-0.1,0.1-0.1,0.2-0.1,0.2c-1.3,0.2-2.2,1.3-2.1,2.6h215.8
			C425.8,101.5,427.1,100.2,428.2,99"/>
	</g>
</g>
<g id="Layer_2" class="st1">
	<rect y="115" class="st5" width="375" height="45"/>
	<polygon id="Fill-7" class="st6" points="0,115 375,115 375,102.1 0,102.1 	"/>
</g>
</svg>
