<?xml version="1.0" encoding="utf-8"?>
<!-- Generator: Adobe Illustrator 21.0.0, SVG Export Plug-In . SVG Version: 6.00 Build 0)  -->
<svg version="1.1" id="Layer_1" xmlns="http://www.w3.org/2000/svg" xmlns:xlink="http://www.w3.org/1999/xlink" x="0px" y="0px"
	 viewBox="0 0 22.5 22.5" style="enable-background:new 0 0 22.5 22.5;" xml:space="preserve">
<style type="text/css">
	.st0{fill:#424143;}
	.st1{fill:#BCBDBF;
	opacity: 0.5;}
</style>
<circle class="st0" cx="11.3" cy="11.3" r="11.3"/>
<g>
	<path id="Fill-116_1_" class="st1" d="M11.3,4C7.3,4,4,7.2,4,11.2c0,4,3.2,7.3,7.2,7.3s7.3-3.2,7.3-7.2c0,0,0,0,0,0
		C18.5,7.3,15.3,4,11.3,4C11.3,4,11.3,4,11.3,4"/>
	<path id="Fill-117_1_" class="st0" d="M11.2,7.7c0.5,0,0.9-0.4,0.9-0.9c0,0,0,0,0-0.1c-0.1-0.5-0.5-0.9-1-0.8
		c-0.4,0-0.8,0.4-0.8,0.8c0,0,0,0,0,0.1C10.3,7.3,10.7,7.7,11.2,7.7"/>
	<path id="Fill-118_1_" class="st0" d="M8.7,8.8c0.4-0.4,0.4-0.9,0-1.3c-0.4-0.4-0.9-0.4-1.3,0S7,8.4,7.4,8.8c0,0,0,0,0,0
		C7.8,9.2,8.4,9.2,8.7,8.8"/>
	<path id="Fill-119_1_" class="st0" d="M7.7,11.4C7.7,11.4,7.7,11.4,7.7,11.4c-0.1-0.6-0.5-0.9-1-0.9c-0.4,0-0.8,0.4-0.8,0.8
		c0,0,0,0,0,0.1c0,0.5,0.4,0.9,0.9,0.9C7.3,12.3,7.8,11.9,7.7,11.4C7.8,11.4,7.8,11.4,7.7,11.4"/>
	<path id="Fill-120_1_" class="st0" d="M16.7,11.1c-0.1-0.5-0.5-0.9-1-0.8c-0.4,0-0.8,0.4-0.8,0.8c0,0,0,0,0,0.1
		c0,0.5,0.4,0.9,0.9,0.9C16.3,12.1,16.7,11.7,16.7,11.1C16.7,11.2,16.7,11.2,16.7,11.1C16.7,11.2,16.7,11.2,16.7,11.1"/>
	<path id="Fill-121_1_" class="st0" d="M15,8.7c0.4-0.4,0.4-0.9,0-1.3c-0.4-0.4-0.9-0.4-1.3,0s-0.4,0.9,0,1.3c0,0,0,0,0,0
		C14.1,9,14.7,9,15,8.7"/>
	<path id="Fill-122_1_" class="st0" d="M8.9,13.8c-0.4-0.4-1-0.4-1.3,0c-0.4,0.4-0.4,1,0,1.3c0.4,0.4,1,0.4,1.3,0
		c0.2-0.2,0.3-0.5,0.3-0.7C9.1,14.2,9,14,8.9,13.8"/>
	<path id="Fill-123_1_" class="st0" d="M11.4,14.8c-0.5,0-0.9,0.4-0.9,0.8c0,0,0,0,0,0.1c0,0.5,0.4,0.9,0.9,0.9
		c0.5,0,0.9-0.4,0.9-0.9c0,0,0,0,0,0c0,0,0,0,0-0.1C12.3,15.2,11.9,14.8,11.4,14.8"/>
	<path id="Fill-124_1_" class="st0" d="M15.2,13.7c-0.4-0.4-1-0.4-1.3,0c-0.4,0.4-0.4,1,0,1.3c0.4,0.4,1,0.4,1.3,0
		c0.2-0.2,0.3-0.5,0.3-0.7C15.4,14.1,15.3,13.9,15.2,13.7"/>
	<path id="Fill-125_1_" class="st0" d="M11.3,8.7c-1.4,0-2.5,1.1-2.5,2.5s1.1,2.5,2.5,2.5c1.4,0,2.5-1.1,2.5-2.5c0,0,0,0,0,0
		C13.8,9.9,12.7,8.7,11.3,8.7C11.3,8.7,11.3,8.7,11.3,8.7"/>
</g>
</svg>
